<?xml version="1.0" encoding="utf-8"?>
<!-- Generated by IcoMoon.io -->
<!DOCTYPE svg PUBLIC "-//W3C//DTD SVG 1.1//EN" "http://www.w3.org/Graphics/SVG/1.1/DTD/svg11.dtd">
<svg version="1.1" xmlns="http://www.w3.org/2000/svg" xmlns:xlink="http://www.w3.org/1999/xlink" width="496" height="144" viewBox="0 0 496 144">
<svg id="icon-oc-access-dav" width="16" height="16" viewBox="0 0 16 16" x="0" y="0">
<path fill="#444" d="M3.538 13.2v-4.463h1.587c1.588 0 2.375 0.725 2.375 2.175 0 0.7-0.213 1.25-0.65 1.662s-1.013 0.625-1.725 0.625h-1.587zM4.55 9.55v2.838h0.5c0.438 0 0.775-0.125 1.025-0.387s0.375-0.613 0.375-1.063c0-0.425-0.125-0.762-0.375-1-0.25-0.25-0.588-0.363-1.037-0.363h-0.487zM12.075 13.2h-1.1l-0.313-0.988h-1.588l-0.313 0.988h-1.088l1.625-4.463h1.188l1.588 4.463zM10.425 11.438l-0.475-1.5c-0.037-0.113-0.063-0.25-0.075-0.4h-0.025c-0.012 0.125-0.037 0.262-0.075 0.387l-0.488 1.512h1.137zM16 8.738l-1.537 4.463h-1.137l-1.525-4.463h1.088l0.938 3.113c0.050 0.162 0.075 0.313 0.088 0.45h0.012c0.012-0.137 0.050-0.287 0.1-0.463l0.925-3.1h1.050zM1.238 10.037c0.925-0.65 1.838-1.313 2.763-1.963 0.237-0.162 0.438-0.35 0.475-0.638 0.313 0.175 0.6 0.362 0.912 0.513s0.662 0.2 1.013 0.2c0.35 0 0.688-0.075 1.013-0.213s0.613-0.338 0.863-0.588c0.875-0.912 1.012-2.263 0.338-3.325-0.662-1.038-1.963-1.475-3.138-1.063-0.563 0.2-1.025 0.55-1.337 1.050-0.525 0.825-0.563 1.688-0.2 2.575-0.025 0.013-0.038 0.025-0.038 0.025-0.025 0-0.050 0-0.075 0-0.212-0.025-0.4 0.050-0.575 0.175-0.6 0.425-1.188 0.85-1.788 1.275-0.363 0.25-0.725 0.512-1.075 0.762-0.412 0.287-0.487 0.787-0.188 1.137 0.25 0.3 0.662 0.338 1.038 0.075zM4.675 4.763c0.362-0.913 1.438-1.375 2.362-1 0.963 0.388 1.425 1.438 1.037 2.4s-1.45 1.375-2.35 1.025c-0.987-0.388-1.438-1.438-1.050-2.425z"></path>
</svg>
<svg id="icon-oc-add-page-icon" width="16" height="16" viewBox="0 0 16 16" x="32" y="0">
<path fill="#444" d="M16 6.25h-6.25v-6.25h-3.5v6.25h-6.25v3.5h6.25v6.25h3.5v-6.25h6.25z"></path>
</svg>
<svg id="icon-oc-add-preferred-reviewer-icon" width="16" height="16" viewBox="0 0 16 16" x="64" y="0">
<path fill="#444" d="M15.675 7.6l-7.425-7.438c-0.213-0.225-0.575-0.225-0.8 0 0 0 0 0 0 0l-1.212 1.212c-0.213 0.2-0.225 0.55-0.013 0.762 0 0 0.013 0.013 0.013 0.013l4.125 4.1h-9.637c-0.325 0.025-0.588 0.287-0.6 0.612v2.275c0.013 0.325 0.275 0.588 0.6 0.613h9.637l-4.125 4.1c-0.213 0.213-0.225 0.563-0.013 0.775 0 0 0.013 0.012 0.013 0.012l1.2 1.2c0.213 0.225 0.575 0.225 0.8 0 0 0 0 0 0 0l7.438-7.438c0.213-0.225 0.213-0.575 0-0.8z"></path>
</svg>
<svg id="icon-oc-approve-icon" width="16" height="16" viewBox="0 0 16 16" x="96" y="0">
<path fill="#444" d="M14.988 10.037h-4.45v-1.012c0-0.275-0.225-0.512-0.512-0.512h-0.25v-1.75c1.063-0.612 1.775-1.763 1.775-3.087 0.012-1.962-1.575-3.55-3.55-3.55s-3.563 1.587-3.563 3.55c0 1.325 0.713 2.462 1.775 3.087v1.738h-0.25c-0.275 0-0.513 0.225-0.513 0.512v1.012h-4.438c-0.563 0-1.012 0.463-1.012 1.012v2.537c0 0.563 0.463 1.012 1.012 1.012h0.25v0.375c0 0.5 0.438 0.887 0.95 0.887h11.55c0.537 0 0.95-0.4 0.95-0.887v-0.375h0.25c0.563 0 1.012-0.463 1.012-1.012v-2.525c0.037-0.563-0.425-1.012-0.988-1.012zM5.475 3.688c0-1.4 1.138-2.538 2.537-2.538s2.537 1.137 2.537 2.538c0 0.9-0.488 1.737-1.275 2.2l-0.512 0.287v2.325h-1.525v-2.338l-0.513-0.287c-0.787-0.438-1.263-1.287-1.25-2.188zM9.525 9.525v0.512h-3.050v-0.512h3.050zM13.95 14.988c0 0.063-0.075 0.125-0.188 0.125h-11.55c-0.1 0-0.188-0.063-0.188-0.125v-0.375h11.925c0 0 0 0.375 0 0.375zM14.988 13.588h-13.975v-2.537h13.975v2.537zM8.537 4.313h-1.050l-0.125 0.375h-0.713l0.95-2.538h0.825l0.963 2.538h-0.713l-0.137-0.375zM7.65 3.75h0.713l-0.363-1.025-0.35 1.025z"></path>
</svg>
<svg id="icon-oc-bold-type-icon" width="16" height="16" viewBox="0 0 16 16" x="128" y="0">
<path fill="#444" d="M12.188 7.412c1.063-0.75 1.813-2.013 1.813-3.4 0-1.962-1.275-3.962-4.725-4.013h-7.938v1.363c1.325 0 2 0.5 2 1.788v9.775c0 1.125-0.375 1.738-2 1.738v1.337h7.412c4.225 0 5.912-2.4 5.912-4.688 0-1.7-0.938-3.113-2.475-3.9zM6.662 2h1.4c1.575 0 2.75 0.712 2.75 2.25s-0.963 2.412-2.338 2.412h-1.813v-4.662zM8.463 14h-1.8v-5.338h1.862c1.512 0.012 2.612 1.088 2.612 2.45s-0.813 2.887-2.675 2.887z"></path>
</svg>
<svg id="icon-oc-clear-form-fields-icon" width="16" height="16" viewBox="0 0 16 16" x="160" y="0">
<path fill="#444" d="M15.488 14.75h-8.3l8.688-8.675c0.163-0.162 0.163-0.4 0-0.563l-4.863-4.862c-0.162-0.162-0.412-0.162-0.575 0l-10.313 10.325c-0.163 0.162-0.163 0.425 0 0.575l3.95 3.887c0.075 0.075 0.175 0.063 0.287 0.063h11.125c0.225 0 0.412-0.15 0.412-0.375s-0.188-0.375-0.412-0.375zM10.725 1.525l4.287 4.287-6.213 6.213-4.287-4.287 6.213-6.213zM6.025 14.75h-1.5l-3.538-3.512 2.95-2.938 4.287 4.275-2.2 2.175z"></path>
</svg>
<svg id="icon-oc-close-set" width="16" height="16" viewBox="0 0 16 16" x="192" y="0">
<path fill="#444" d="M16 11.613c0 1.938-1.563 3.5-3.5 3.5s-3.5-1.563-3.5-3.5 1.563-3.5 3.5-3.5c1.925 0.012 3.488 1.575 3.5 3.5zM15.5 11.613c0-1.662-1.338-3-3-3s-3 1.338-3 3 1.338 3 3 3 3-1.35 3-3zM13.25 11.613l1.213-1.213c0.050-0.050 0.063-0.125 0.012-0.175 0 0-0.012-0.012-0.012-0.012l-0.563-0.563c-0.050-0.050-0.125-0.063-0.175-0.012 0 0-0.012 0.012-0.012 0.012l-1.213 1.213-1.213-1.213c-0.050-0.050-0.125-0.063-0.175-0.012 0 0-0.012 0.012-0.012 0.012l-0.563 0.563c-0.050 0.050-0.063 0.125-0.012 0.175 0 0 0.012 0.012 0.012 0.012l1.213 1.213-1.213 1.213c-0.050 0.050-0.063 0.125-0.012 0.175 0 0 0.012 0.012 0.012 0.012l0.563 0.563c0.050 0.050 0.125 0.063 0.175 0.012 0 0 0.012-0.012 0.012-0.012l1.213-1.213 1.213 1.213c0.050 0.050 0.125 0.063 0.175 0.012 0 0 0.012-0.012 0.012-0.012l0.563-0.563c0.050-0.050 0.063-0.125 0.012-0.175 0 0-0.012-0.012-0.012-0.012l-1.213-1.213zM8 11.613c0-2.488 2.025-4.5 4.5-4.5 0.838 0 1.65 0.237 2.363 0.675l1.037-2.487c0.225-0.4 0.075-0.9-0.325-1.125-0.125-0.063-0.262-0.1-0.4-0.1h-10.65l-3.975 7.112c-0.112 0.2-0.037 0.45 0.162 0.563 0.063 0.037 0.125 0.050 0.2 0.050h7.087c0-0.063 0-0.125 0-0.188zM0.113 10.95l4.125-7.362h8.938v-0.388c0.012-0.462-0.363-0.85-0.825-0.862h-6.588l-0.7-1.238c-0.075-0.137-0.213-0.213-0.362-0.213h-4.287c-0.225 0-0.412 0.187-0.412 0.412v9.637c0 0.075 0.013 0.137 0.025 0.213 0.025-0.075 0.050-0.137 0.087-0.2z"></path>
</svg>
<svg id="icon-oc-close-tab-hover-icon" width="16" height="16" viewBox="0 0 16 16" x="224" y="0">
<path fill="#444" d="M8 0c-4.412 0-8 3.587-8 8s3.587 8 8 8 8-3.588 8-8-3.588-8-8-8z"></path>
<path fill="#d0d0d0" d="M12.912 11.037c0.125 0.125 0.125 0.325 0 0.438l-1.425 1.425c-0.125 0.125-0.325 0.125-0.438 0l-3.050-3.037-3.038 3.037c-0.125 0.125-0.325 0.125-0.438 0l-1.438-1.412c-0.125-0.125-0.125-0.325 0-0.438l3.050-3.050-3.050-3.037c-0.125-0.125-0.125-0.325 0-0.438l1.425-1.425c0.125-0.125 0.325-0.125 0.438 0l3.050 3.038 3.037-3.038c0.125-0.125 0.325-0.125 0.438 0l1.425 1.425c0.125 0.125 0.125 0.325 0 0.438l-3.037 3.038 3.050 3.037z"></path>
</svg>
<svg id="icon-oc-close-tab-icon" width="16" height="16" viewBox="0 0 16 16" x="256" y="0">
<path fill="#444" d="M9.875 8l3.037-3.037c0.125-0.125 0.125-0.325 0-0.45l-1.425-1.413c-0.125-0.125-0.325-0.125-0.45 0l-3.037 3.050-3.050-3.050c-0.125-0.125-0.325-0.125-0.45 0l-1.4 1.425c-0.125 0.125-0.125 0.325 0 0.45l3.038 3.038-3.038 3.037c-0.125 0.125-0.125 0.325 0 0.45l1.425 1.425c0.125 0.125 0.325 0.125 0.45 0l3.038-3.050 3.037 3.037c0.125 0.125 0.325 0.125 0.45 0l1.425-1.412c0.125-0.125 0.125-0.325 0-0.45l-3.050-3.050z"></path>
</svg>
<svg id="icon-oc-collapse-set" width="16" height="16" viewBox="0 0 16 16" x="288" y="0">
<path fill="#404040" d="M6.4 2.862l-0.65-1.163c-0.072-0.115-0.195-0.192-0.336-0.2l-4.026-0c-0.213 0.013-0.381 0.186-0.387 0.399l-0 9.038c-0 0.007-0 0.016-0 0.025 0 0.431 0.346 0.781 0.775 0.787l11.063 0c0.002 0 0.004 0 0.006 0 0.317 0 0.59-0.194 0.704-0.47l2.352-5.618c0.065-0.111 0.104-0.245 0.104-0.388 0-0.425-0.342-0.77-0.766-0.775h-1.875v-0.837c0-0.007 0-0.016 0-0.025 0-0.431-0.346-0.781-0.775-0.787l-6.188-0zM12.412 3.8v0.7h-7.175l-3.3 5.925v-7.975h3.15l0.775 1.35zM14.975 5.45l-2.237 5.362h-9.95l3-5.362h9.188z"></path>
<path fill="#303030" d="M7.263 14.5h-6.775c-0.269 0-0.487-0.218-0.487-0.488v-6.775c0-0.269 0.218-0.487 0.487-0.487h6.775c0.269 0 0.487 0.218 0.487 0.487v6.787c-0.007 0.264-0.223 0.475-0.487 0.475-0 0-0 0-0 0z"></path>
<path fill="#d0d0d0" d="M0.725 7.475v6.3h6.3v-6.3zM6.375 11.037h-5v-0.825h5z"></path>
</svg>
<svg id="icon-oc-collapse-toggle-icon" width="16" height="16" viewBox="0 0 16 16" x="320" y="0">
<path fill="#444" d="M15.5 16h-15c-0.275 0-0.5-0.225-0.5-0.5v-15c0-0.275 0.225-0.5 0.5-0.5h15c0.275 0 0.5 0.225 0.5 0.5v15c0 0.275-0.225 0.5-0.5 0.5z"></path>
<path fill="#d0d0d0" d="M2 7h12.012v2h-12.012v-2z"></path>
</svg>
<svg id="icon-oc-console-icon" width="16" height="16" viewBox="0 0 16 16" x="352" y="0">
<path fill="#444" d="M16 10.4v5.6h-16v-16h16v8.838l-3 3.463 0.063 0.7 0.738-0.063 2.2-2.537zM7.088 9c0.638-0.662 0.963-1.537 0.963-2.625 0-1.063-0.313-1.912-0.925-2.55-0.612-0.65-1.425-0.975-2.425-0.975-1.063 0-1.913 0.337-2.55 1.012s-0.962 1.563-0.962 2.65c0 1.037 0.313 1.875 0.95 2.525s1.45 0.963 2.45 0.963c1.025 0 1.862-0.338 2.5-1zM5.925 4.787c0.313 0.4 0.463 0.963 0.463 1.675 0 0.688-0.162 1.225-0.475 1.612-0.325 0.387-0.75 0.575-1.3 0.575-0.525 0-0.95-0.2-1.275-0.6s-0.487-0.938-0.487-1.625c0-0.675 0.163-1.213 0.487-1.625s0.762-0.612 1.325-0.612c0.537 0 0.95 0.2 1.263 0.6zM14.125 8.213c-0.5 0.3-1.037 0.45-1.662 0.45-0.65 0-1.137-0.2-1.525-0.6-0.375-0.4-0.563-0.925-0.563-1.6 0-0.7 0.2-1.25 0.613-1.662 0.4-0.412 0.9-0.612 1.563-0.612 0.6 0 1.2 0.138 1.575 0.412v-1.5c-0.375-0.175-1.012-0.25-1.7-0.25-1.1 0-1.988 0.35-2.675 1.038s-1.025 1.587-1.025 2.688c0 1.037 0.313 1.875 0.925 2.487 0.613 0.625 1.438 0.938 2.513 0.938 0.825 0 1.475-0.125 1.975-0.363v-1.425h-0.012zM12 12h-10.5v1h10.5v-1z"></path>
</svg>
<svg id="icon-oc-create-new-icon" width="16" height="16" viewBox="0 0 16 16" x="384" y="0">
<path fill="#444" d="M5.775 9.5c-0.625 0-1.15-0.2-1.537-0.613-0.4-0.4-0.6-0.938-0.6-1.588 0-0.688 0.2-1.25 0.6-1.675s0.938-0.638 1.6-0.638c0.625 0 1.138 0.2 1.525 0.612s0.588 0.938 0.588 1.612c0 0.688-0.2 1.238-0.6 1.65-0.4 0.425-0.925 0.637-1.575 0.637zM5.825 5.838c-0.35 0-0.625 0.125-0.825 0.388s-0.313 0.6-0.313 1.025 0.1 0.775 0.313 1.025c0.2 0.25 0.475 0.375 0.8 0.375 0.338 0 0.612-0.125 0.813-0.363 0.2-0.25 0.3-0.588 0.3-1.013 0-0.45-0.1-0.8-0.287-1.050-0.2-0.25-0.463-0.388-0.8-0.388zM11.75 9.275c-0.325 0.15-0.738 0.225-1.262 0.225-0.675 0-1.213-0.2-1.6-0.588s-0.575-0.912-0.575-1.575c0-0.7 0.213-1.263 0.65-1.688 0.438-0.438 1-0.65 1.7-0.65 0.425 0 0.787 0.050 1.088 0.162v0.938c-0.3-0.175-0.625-0.263-1.012-0.263-0.412 0-0.75 0.125-1 0.388s-0.375 0.6-0.375 1.050c0 0.425 0.125 0.75 0.363 1s0.563 0.375 0.963 0.375c0.387 0 0.738-0.088 1.063-0.275 0 0 0 0.9 0 0.9zM15 2.25h-15v10c0 0.55 0.45 1 1 1h9.5v-1.75c0-0.55 0.45-1 1-1h4.5v-7.25c0-0.55-0.45-1-1-1zM7 1.75l-0.85-1.5c-0.088-0.15-0.25-0.25-0.438-0.25h-5.213c-0.275 0-0.5 0.225-0.5 0.5v1.25h7zM15.5 11h-4c-0.275 0-0.5 0.225-0.5 0.5v4c0 0.275 0.225 0.5 0.5 0.5h4c0.275 0 0.5-0.225 0.5-0.5v-4c0-0.275-0.225-0.5-0.5-0.5zM15.25 13.938h-1.313v1.313h-0.875v-1.313h-1.313v-0.875h1.313v-1.313h0.875v1.313h1.313v0.875z"></path>
</svg>
<svg id="icon-oc-create-scenario-icon" width="16" height="16" viewBox="0 0 16 16" x="416" y="0">
<path fill="#444" d="M5.7 9.188h-1.6l-0.188 0.575h-1.075l1.45-3.838h1.237l1.45 3.838h-1.075l-0.2-0.575zM4.362 8.35h1.075l-0.525-1.55-0.55 1.55zM5.675 3.087l7.237-1.275-0.575-1.613-7.95 2.888h1.288zM14.338 3.087l-0.225-1.225-6.95 1.225h7.175zM6.287 1.837l-0.125-0.212c-0.1-0.15-0.263-0.238-0.438-0.225h-5.225c-0.25-0.025-0.475 0.163-0.5 0.425 0 0.012 0 0.012 0 0.025v1.225h2.8l3.487-1.238zM15.012 3.612h-15.012v10.012c0.013 0.537 0.45 0.963 0.975 0.95 0.012 0 0.012 0 0.025 0h8.137c-0.25-0.537-0.375-1.113-0.375-1.7 0-0.525 0.1-1.037 0.3-1.525h-1.063v-0.775h1.488c0.2-0.287 0.425-0.55 0.688-0.775h-2.175v-0.775h3.438c1.613-0.613 3.438-0.15 4.563 1.15v-5.55c0-0.55-0.438-1-0.988-1.013zM12.125 8.25h-4.125v-0.775h4.125v0.775zM13.162 6.713h-5.162v-0.775h5.162v0.775zM12.9 9.8c-1.713 0-3.1 1.387-3.1 3.1s1.387 3.1 3.1 3.1 3.1-1.387 3.1-3.1-1.387-3.1-3.1-3.1zM14.963 13.287h-1.675v1.675h-0.775v-1.675h-1.675v-0.775h1.675v-1.675h0.775v1.675h1.675v0.775z"></path>
</svg>
<svg id="icon-oc-delete-page-icon" width="16" height="16" viewBox="0 0 16 16" x="448" y="0">
<path fill="#444" d="M0 6.25h16v3.5h-16v-3.5z"></path>
</svg>
<svg id="icon-oc-document-add-icon" width="16" height="16" viewBox="0 0 16 16" x="480" y="0">
<path fill="#444" d="M7.225 14.963h-5.675v-13.925h5.625v2.975c0 0.95 0.775 1.713 1.712 1.713h2.988v2.013h1.037v-3.612l-4.125-4.125h-7.237c-0.575 0-1.038 0.463-1.038 1.038v13.938c0 0.563 0.463 1.037 1.038 1.037h5.675v-1.050zM8.313 1.038h0.025l3.537 3.513v0.025h-2.988c-0.325 0-0.563-0.263-0.563-0.563v-2.975h-0.012zM15.488 13.425h-2.575v2.575h-1.037v-2.575h-2.588v-1.037h2.588v-2.575h1.037v2.575h2.575v1.037z"></path>
</svg>
<svg id="icon-oc-document-delete-icon" width="16" height="16" viewBox="0 0 16 16" x="0" y="32">
<path fill="#444" d="M10.063 0h-7.237c-0.575 0-1.038 0.463-1.038 1.038v13.938c0 0.575 0.462 1.037 1.038 1.037h10.325c0.575 0 1.037-0.463 1.037-1.037v-10.85l-4.125-4.125zM13.162 14.963h-10.325v-13.925h5.625v2.987c0 0.95 0.775 1.725 1.725 1.725h2.988l-0.012 9.213zM10.175 4.588c-0.313 0-0.575-0.263-0.575-0.575v-2.975h0.025l3.525 3.525v0.025h-2.975zM8.887 10.063l1.625-1.625c0.25-0.25 0.25-0.638 0-0.888s-0.637-0.25-0.887 0l-1.625 1.625-1.625-1.625c-0.25-0.25-0.638-0.25-0.888 0s-0.25 0.637 0 0.887l1.625 1.625-1.625 1.625c-0.25 0.25-0.25 0.637 0 0.887 0.125 0.125 0.287 0.188 0.438 0.188 0.162 0 0.325-0.063 0.438-0.188l1.625-1.625 1.625 1.625c0.125 0.125 0.287 0.188 0.438 0.188s0.325-0.063 0.438-0.188c0.25-0.25 0.25-0.637 0-0.887l-1.6-1.625z"></path>
</svg>
<svg id="icon-oc-document-icon" width="16" height="16" viewBox="0 0 16 16" x="32" y="32">
<path fill="#444" d="M10.063 0h-7.237c-0.575 0-1.038 0.463-1.038 1.038v13.938c0 0.575 0.462 1.037 1.038 1.037h10.325c0.575 0 1.037-0.463 1.037-1.037v-10.85l-4.125-4.125zM9.6 1.038h0.025l3.525 3.525v0.025h-2.975c-0.313 0-0.575-0.263-0.575-0.575v-2.975zM13.162 14.963h-10.325v-13.925h5.625v2.987c0 0.95 0.775 1.725 1.725 1.725h2.988l-0.012 9.213z"></path>
</svg>
<svg id="icon-oc-document-rename-icon" width="16" height="16" viewBox="0 0 16 16" x="64" y="32">
<path fill="#444" d="M10.063 0h-7.225c-0.575 0-1.038 0.463-1.038 1.038v13.938c0 0.575 0.462 1.037 1.038 1.037h10.325c0.575 0 1.037-0.463 1.037-1.037v-10.85l-4.137-4.125zM9.6 1.038h0.025l3.525 3.525v0.025h-2.975c-0.313 0-0.575-0.263-0.575-0.575v-2.975zM13.175 14.963v0h-10.338v-13.925h5.625v2.987c0 0.95 0.775 1.725 1.725 1.725h2.988v9.213zM6.088 10.725h-0.55v1.4h-1.063v-4.125h2.063c0.912 0 1.438 0.613 1.438 1.375 0 0.713-0.438 1.1-0.825 1.238l0.85 1.512h-1.225l-0.688-1.4zM6.388 8.9h-0.838v0.925h0.838c0.275 0 0.513-0.175 0.513-0.463s-0.237-0.463-0.513-0.463zM10.25 7.237h0.85v-0.537h-0.85c-0.338 0-0.65 0.15-0.85 0.375-0.2-0.225-0.512-0.375-0.85-0.375h-0.85v0.537h0.85c0.325 0 0.588 0.225 0.588 0.5v4.638c0 0.275-0.262 0.5-0.588 0.5h-0.85v0.537h0.85c0.338 0 0.65-0.15 0.85-0.375 0.2 0.225 0.512 0.375 0.85 0.375h0.85v-0.537h-0.85c-0.325 0-0.588-0.225-0.588-0.5v-4.625c0-0.275 0.262-0.513 0.588-0.513z"></path>
</svg>
<svg id="icon-oc-dropdown-icon" width="16" height="16" viewBox="0 0 16 16" x="96" y="32">
<path fill="#444" d="M7.813 12.412l-7.737-8.425c-0.163-0.175-0.050-0.487 0.188-0.487h15.475c0.238 0 0.35 0.313 0.188 0.487l-7.738 8.425c-0.1 0.113-0.275 0.113-0.375 0z"></path>
</svg>
<svg id="icon-oc-expand-set" width="16" height="16" viewBox="0 0 16 16" x="128" y="32">
<path fill="#404040" d="M7.563 2.638l-0.8-1.4c-0.081-0.143-0.231-0.238-0.404-0.238-0.003 0-0.006 0-0.009 0h-4.887c-0.253 0.007-0.456 0.21-0.462 0.462l-0 10.976c-0 0.004-0 0.008-0 0.013 0 0.523 0.417 0.948 0.936 0.962l13.126 0c0.521-0.014 0.938-0.439 0.938-0.962 0-0.005-0-0.009-0-0.014v-8.812c0-0.004 0-0.008 0-0.013 0-0.523-0.417-0.948-0.936-0.962l-7.501-0z"></path>
<path fill="#303030" d="M7.263 15h-6.775c-0.269 0-0.487-0.218-0.487-0.488v-6.775c0-0.269 0.218-0.487 0.487-0.487h6.775c0.269 0 0.487 0.218 0.487 0.487v6.787c-0.007 0.264-0.223 0.475-0.487 0.475-0 0-0 0-0 0z"></path>
<path fill="#d0d0d0" d="M0.725 7.975v6.3h6.3v-6.3zM6.375 11.537h-2.088v2.088h-0.825v-2.088h-2.087v-0.825h2.087v-2.088h0.838v2.088h2.075z"></path>
</svg>
<svg id="icon-oc-expand-toggle-icon" width="16" height="16" viewBox="0 0 16 16" x="160" y="32">
<path fill="#444" d="M15.5 16h-15c-0.275 0-0.5-0.225-0.5-0.5v-15c0-0.275 0.225-0.5 0.5-0.5h15c0.275 0 0.5 0.225 0.5 0.5v15c0 0.275-0.225 0.5-0.5 0.5z"></path>
<path fill="#d0d0d0" d="M14 7h-5v-5h-2v5h-5v2h5v5h2v-5h5z"></path>
</svg>
<svg id="icon-oc-folder-view-icon" width="16" height="16" viewBox="0 0 16 16" x="192" y="32">
<path fill="#444" d="M16 5h-9v-2h9v2zM16 6.25h-9v0.75h9v-0.75zM2.112 3.538h2.413c0.162 0 0.3 0.138 0.3 0.313v2.837c0 0.175-0.138 0.313-0.3 0.313h-4.225c-0.163 0-0.3-0.138-0.3-0.313v-3.538c0-0.087 0.063-0.15 0.15-0.15h1.575c0.063 0 0.1 0.025 0.137 0.075l0.25 0.462zM16 9h-9v2h9v-2zM16 12.25h-9v0.75h9v-0.75zM2.112 9.537h2.413c0.162 0 0.3 0.137 0.3 0.313v2.838c0 0.175-0.138 0.313-0.3 0.313h-4.225c-0.163 0-0.3-0.137-0.3-0.313v-3.537c0-0.088 0.063-0.15 0.15-0.15h1.575c0.063 0 0.1 0.025 0.137 0.075l0.25 0.463z"></path>
</svg>
<svg id="icon-oc-gadget-actions-icon" width="16" height="16" viewBox="0 0 16 16" x="224" y="32">
<path fill="#444" d="M8 5.5v-2.5h8v2.5h-8zM16 13v-2.5h-8v2.5h8zM16 9.25v-2.5h-8v2.5h8zM3.45 10.512l3.263-3.55c0.063-0.075 0.025-0.2-0.075-0.2h-6.525c-0.1 0-0.15 0.138-0.075 0.2l3.263 3.55c0.038 0.050 0.112 0.050 0.15 0z"></path>
</svg>
<svg id="icon-oc-gadgets-briefcase-icon" width="16" height="16" viewBox="0 0 16 16" x="256" y="32">
<path fill="#444" d="M0.487 4.088c1.488 2.5 3.737 4.237 6.287 4.662 0.162-0.525 0.65-0.9 1.225-0.9s1.063 0.375 1.225 0.9c2.563-0.425 4.8-2.162 6.287-4.662 0 0 0 0 0.012 0v0c-0.125-0.050-0.25-0.088-0.375-0.088h-4.575c0-1.425-1.15-2.575-2.575-2.575s-2.575 1.15-2.575 2.575h-4.575c-0.137 0-0.262 0.037-0.362 0.088-0.013 0-0.013 0 0 0v0zM8 2.288c0.938 0 1.713 0.762 1.713 1.712h-3.425c0-0.95 0.775-1.712 1.712-1.712zM15.925 4.513c-1.575 2.587-3.95 4.388-6.65 4.812-0.088 0.625-0.625 1.1-1.275 1.1s-1.188-0.475-1.275-1.1c-1.713-0.275-3.3-1.1-4.638-2.325-0.013-0.013-0.038-0.037-0.050-0.050-0.050-0.037-0.087-0.088-0.137-0.138-0.038-0.037-0.063-0.063-0.1-0.1-0.025-0.025-0.050-0.050-0.075-0.075-0.613-0.625-1.175-1.338-1.65-2.125-0.050 0.112-0.075 0.225-0.075 0.35v8.85c0 0.475 0.388 0.863 0.863 0.863h14.275c0.475 0 0.863-0.387 0.863-0.863v-8.863c0-0.112-0.025-0.237-0.075-0.338zM4 13.425h-2.438c-0.238 0-0.425-0.188-0.425-0.425v-5.938c0.875 0.9 1.837 1.613 2.862 2.125v4.238zM14.85 13c0 0.238-0.188 0.425-0.425 0.425h-2.425v-4.238c1.025-0.512 1.988-1.213 2.85-2.112v5.925z"></path>
</svg>
<svg id="icon-oc-gadgets-briefcase2-icon" width="16" height="16" viewBox="0 0 16 16" x="288" y="32">
<path fill="#444" d="M15.75 8.050v6.2c0 0.55-0.45 1-1 1h-13.5c-0.55 0-1-0.45-1-1v-6.2c0.225 0.125 0.475 0.2 0.75 0.2h2.375v0.75c0 0.35 0.275 0.625 0.625 0.625s0.625-0.275 0.625-0.625v-0.75h6.75v0.75c0 0.35 0.275 0.625 0.625 0.625s0.625-0.275 0.625-0.625v-0.75h2.375c0.275 0 0.525-0.075 0.75-0.2zM16 3.75v3c0 0.55-0.45 1-1 1h-2.375v-0.75c0-0.35-0.275-0.625-0.625-0.625s-0.625 0.275-0.625 0.625v0.75h-6.75v-0.75c0-0.35-0.275-0.625-0.625-0.625s-0.625 0.275-0.625 0.625v0.75h-2.375c-0.55 0-1-0.45-1-1v-3c0-0.55 0.45-1 1-1h4v-1c0-0.55 0.45-1 1-1h4c0.55 0 1 0.45 1 1v1h4c0.55 0 1 0.45 1 1zM6 2.75h4v-0.75c0-0.137-0.113-0.25-0.25-0.25h-3.5c-0.138 0-0.25 0.113-0.25 0.25v0.75z"></path>
</svg>
<svg id="icon-oc-help-icon" width="16" height="16" viewBox="0 0 16 16" x="320" y="32">
<path fill="#444" d="M8.838 9.25c0 0.3 0.075 0.4 0.075 0.625 0 0.588-0.438 1.238-1.3 1.238-0.888 0-1.65-0.75-1.65-2.162 0-2.763 3.4-3.088 3.4-4.7 0-0.725-0.537-1.325-1.813-1.325-0.7 0-1.35 0.237-1.912 0.6-0.275 0.188-0.625 0.275-0.975 0.275-0.75 0-1.375-0.513-1.375-1.35 0-0.237 0.050-0.438 0.138-0.625 0.625-1.225 2.975-1.825 4.463-1.825 3 0 4.837 1.512 4.837 3.675 0 3.4-3.887 3.65-3.887 5.575zM7.838 16c-1.025 0-1.888-0.863-1.888-1.887s0.862-1.887 1.888-1.887 1.887 0.863 1.887 1.887-0.863 1.887-1.888 1.887z"></path>
</svg>
<svg id="icon-oc-html-edit-icon" width="16" height="16" viewBox="0 0 16 16" x="352" y="32">
<path fill="#444" d="M12.512 8.050v6.912h-10.325v-13.938h5.625v2.987c0 0.8 0.55 1.475 1.287 1.663l1.088-1.088h-0.662c-0.313 0-0.575-0.263-0.575-0.575v-2.987h0.025l2.375 2.375 0.725-0.725-2.65-2.688h-7.237c-0.563 0-1.025 0.463-1.025 1.038v13.938c0 0.575 0.462 1.037 1.038 1.037h10.325c0.575 0 1.037-0.463 1.037-1.037v-7.95l-1.050 1.038zM6.938 9.287l6.463-6.463 1.438 1.438-6.463 6.463-1.8 0.375 0.362-1.813z"></path>
</svg>
<svg id="icon-oc-html-icon" width="16" height="16" viewBox="0 0 16 16" x="384" y="32">
<path fill="#444" d="M10.063 0h-7.237c-0.575 0-1.038 0.463-1.038 1.038v13.938c0 0.575 0.462 1.037 1.038 1.037h10.325c0.575 0 1.037-0.463 1.037-1.037v-10.85l-4.125-4.125zM13.162 14.963h-10.325v-13.925h5.625v2.987c0 0.95 0.775 1.725 1.725 1.725h2.988l-0.012 9.213zM10.175 4.588c-0.313 0-0.575-0.263-0.575-0.575v-2.975h0.025l3.525 3.525v0.025h-2.975z"></path>
</svg>
<svg id="icon-oc-ifw-reference-icon" width="16" height="16" viewBox="0 0 16 16" x="416" y="32">
<path fill="#444" d="M16 16h-16v-16h16v16zM10.5 1h-9.5v3h9.5v-3zM15 1h-3.5v3h3.5v-3zM15 5h-14v10h14v-10zM5.5 6h-3.5v2h3.5v-2zM14 6h-3.5v2h3.5v-2zM9.75 6h-3.5v2h3.5v-2zM5.5 9h-3.5v2h3.5v-2zM14 9h-3.5v2h3.5v-2zM9.75 9h-3.5v2h3.5v-2zM5.5 12h-3.5v2h3.5v-2zM14 12h-3.5v2h3.5v-2zM9.75 12h-3.5v2h3.5v-2z"></path>
</svg>
<svg id="icon-oc-import-manager-icon" width="16" height="16" viewBox="0 0 16 16" x="448" y="32">
<path fill="#444" d="M15.175 8.275h-2v-0.888c0-0.475-0.363-0.862-0.825-0.862h-0.65l-1 1h1.475v0.75h-7.65l-3.525 6.313v-8.5h3.363l0.825 1.438h2.013l-0.925-1h-0.513l-0.7-1.237c-0.075-0.125-0.213-0.213-0.362-0.213h-4.287c-0.225 0.013-0.412 0.2-0.412 0.425v9.637c0 0.475 0.362 0.863 0.825 0.863h11.8c0.338 0 0.637-0.2 0.762-0.5l2.5-5.988c0.313-0.563-0.088-1.238-0.713-1.238zM14.9 9.275l-2.388 5.725h-10.6l3.2-5.725h9.787zM11.5 4.75c-0.25-0.25-0.662-0.25-0.912 0l-0.912 0.912v-5c-0.012-0.412-0.262-0.662-0.675-0.662s-0.662 0.25-0.662 0.662v5l-0.925-0.912c-0.25-0.25-0.662-0.25-0.912 0s-0.25 0.662 0 0.912l2.025 2.162c0.113 0.1 0.275 0.162 0.475 0.162 0.088 0 0.15-0.025 0.225-0.088 0.113-0.075 2.275-2.237 2.275-2.237 0.25-0.25 0.25-0.662 0-0.912z"></path>
</svg>
<svg id="icon-oc-italic-type-icon" width="16" height="16" viewBox="0 0 16 16" x="480" y="32">
<path fill="#444" d="M14.25 0l-0.313 1.25c-0.137 0-1.7-0.025-2.1 0.4-0.15 0.125-0.287 0.262-0.537 0.938s-0.65 1.913-1.188 3.712-1.037 3.587-1.512 5.35-0.5 1.963-0.588 2.313c-0.037 0.225 0.075 0.438 0.275 0.537 0.213 0.088 1.963 0.25 1.963 0.25l-0.25 1.25h-8.25l0.25-1.25c0 0 2.237 0.012 2.487-0.762 0.138-0.313 0.2-0.525 0.475-1.363 0.362-1.1 0.787-2.513 1.3-4.225s0.95-3.25 1.313-4.612c0.263-0.962 0.338-1.362 0.412-1.7s0-0.438-0.188-0.55c-0.5-0.325-2.050-0.287-2.050-0.287l0.25-1.25h8.25z"></path>
</svg>
<svg id="icon-oc-list-view-icon" width="16" height="16" viewBox="0 0 16 16" x="0" y="64">
<path fill="#444" d="M16 3.35h-12.25v-2.675h12.25v2.675zM2.313 0.675h-2.313v2.675h2.313v-2.675zM2.413 9.988h-2.313v2.675h2.313v-2.675zM16 10.012h-12.25v2.675h12.25v-2.675zM16 5.313h-12.25v1.063h12.25v-1.063zM16 14.275h-12.25v1.050h12.25v-1.050z"></path>
</svg>
<svg id="icon-oc-mail-set-icon" width="16" height="16" viewBox="0 0 16 16" x="32" y="64">
<path fill="#444" d="M15.037 6.088l-5.588 3.987c-0.425 0.3-0.925 0.463-1.45 0.463s-1.025-0.162-1.45-0.463l-5.588-3.987c-0.387-0.275-0.713-0.638-0.963-1.050v7.463c0 0.55 0.45 1 1 1h14c0.55 0 1-0.45 1-1v-7.463c-0.25 0.412-0.575 0.775-0.963 1.050z"></path>
<path fill="#444" d="M6.838 9.675l-5.575-3.987c-0.8-0.563-1.262-1.475-1.262-2.45v-0.237c0-0.275 0.225-0.5 0.5-0.5h15c0.275 0 0.5 0.225 0.5 0.5v0.237c0 0.975-0.463 1.875-1.262 2.438l-5.575 4c-0.7 0.488-1.625 0.488-2.325 0z"></path>
</svg>
<svg id="icon-oc-mail-set2-icon" width="16" height="16" viewBox="0 0 16 16" x="64" y="64">
<path fill="#444" d="M16 3.5l-7.738 4.838c-0.162 0.1-0.362 0.1-0.525 0l-7.737-4.838h16z"></path>
<path fill="#444" d="M8.525 9.35c-0.325 0.2-0.737 0.2-1.063 0l-7.463-4.675v6.825c0 0.55 0.45 1 1 1h14c0.55 0 1-0.45 1-1v-6.825l-7.475 4.675z"></path>
</svg>
<svg id="icon-oc-make-special-icon" width="16" height="16" viewBox="0 0 16 16" x="96" y="64">
<path fill="#444" d="M7 3.125l-0.85-1.5c-0.088-0.15-0.25-0.25-0.438-0.25h-5.213c-0.275 0-0.5 0.225-0.5 0.5v1.25h7zM15 3.625h-15v10c0 0.55 0.45 1 1 1h14c0.55 0 1-0.45 1-1v-9c0-0.55-0.45-1-1-1zM10.075 12.375l-1.95-1.025-1.95 1.025 0.375-2.175-1.575-1.537 2.175-0.313 0.975-1.975 0.975 1.975 2.175 0.313-1.575 1.537 0.375 2.175z"></path>
</svg>
<svg id="icon-oc-member-list-icon" width="16" height="16" viewBox="0 0 16 16" x="128" y="64">
<path fill="#444" d="M10.675 10.262c-0.637 0.887-1.613 1.45-2.713 1.45-1.088 0-2.063-0.563-2.688-1.425-1.15 0.475-1.975 1.613-1.975 2.912v2.438c0 0.213 0.138 0.363 0.362 0.363h8.613c0.213 0 0.363-0.137 0.425-0.363v-2.438c0-1.313-0.85-2.475-2.025-2.938zM7.963 11.125c-1.575 0-2.875-1.438-2.875-3.225s1.287-3.225 2.875-3.225 2.875 1.438 2.875 3.225-1.3 3.225-2.875 3.225zM5.475 3.45c0.15-0.325 0.225-0.688 0.225-1.075 0.013-1.325-0.938-2.375-2.087-2.375s-2.1 1.050-2.1 2.362c0 0.388 0.087 0.75 0.225 1.075-0.988 0.325-1.738 1.275-1.738 2.362v1.8c0 0.237 0.163 0.4 0.4 0.4 0.2 0 0.4-0.15 0.4-0.4v-1.8c0-0.838 0.625-1.525 1.425-1.638 0.375 0.362 0.85 0.588 1.388 0.588 0.525 0 1-0.213 1.375-0.575 0.263 0.025 0.513 0.138 0.725 0.287 0.225-0.175 0.475-0.325 0.725-0.45-0.275-0.25-0.6-0.45-0.963-0.563zM3.612 3.888c-0.725 0-1.288-0.7-1.288-1.513s0.563-1.512 1.288-1.512c0.725 0 1.288 0.7 1.288 1.512s-0.563 1.513-1.288 1.513zM14.262 3.45c0.15-0.325 0.225-0.688 0.225-1.075 0-1.325-0.95-2.375-2.1-2.375s-2.1 1.050-2.1 2.362c0 0.388 0.088 0.75 0.225 1.075-0.375 0.125-0.7 0.325-0.988 0.588 0.25 0.125 0.475 0.263 0.7 0.438 0.225-0.175 0.488-0.287 0.775-0.325 0.375 0.362 0.85 0.588 1.387 0.588 0.525 0 1-0.213 1.375-0.575 0.8 0.125 1.4 0.813 1.4 1.638v1.8c0 0.237 0.162 0.4 0.4 0.4 0.213 0 0.387-0.15 0.438-0.375v-1.813c0-1.088-0.738-2.038-1.738-2.35zM12.387 3.888c-0.725 0-1.287-0.7-1.287-1.513s0.563-1.512 1.287-1.512c0.725 0 1.287 0.7 1.287 1.512s-0.563 1.513-1.287 1.513z"></path>
</svg>
<svg id="icon-oc-notification-icon" width="16" height="16" viewBox="0 0 16 16" x="160" y="64">
<path fill="#707070" d="M8 12.7c-0.65 0-1.287-0.050-1.875-0.162-1.013 1.012-2.35 1.713-3.888 2.050-0.238 0.037-0.5 0.088-0.762 0.113-0.137 0.012-0.275-0.075-0.313-0.213s0.075-0.225 0.175-0.325c0.563-0.525 1.238-0.938 1.462-2.838-1.712-1.050-2.8-2.6-2.8-4.338 0-3.163 3.575-5.7 8-5.7s8 2.55 8 5.7c0 3.162-3.575 5.713-8 5.713zM4.575 5.838c-0.638 0-1.138 0.513-1.138 1.138s0.513 1.138 1.138 1.138 1.138-0.513 1.138-1.138-0.5-1.138-1.138-1.138zM8 5.838c-0.638 0-1.138 0.513-1.138 1.138s0.513 1.138 1.138 1.138 1.137-0.513 1.137-1.138-0.5-1.138-1.138-1.138zM11.425 5.838c-0.637 0-1.137 0.513-1.137 1.138s0.512 1.138 1.137 1.138c0.637 0 1.137-0.513 1.137-1.138s-0.5-1.138-1.137-1.138z"></path>
</svg>
<svg id="icon-oc-oacs-archive-active-icon" width="16" height="16" viewBox="0 0 16 16" x="192" y="64">
<path fill="#d0d0d0" d="M16 0h-16v3h16v-3zM12.575 13.5h-1.875l-0.025-0.050-0.050-0.050c-0.050-0.050-0.113-0.137-0.15-0.2 0.088-0.012 0.225-0.025 0.425-0.025 0.525 0 1.125 0.113 1.613 0.313l0.063 0.012zM11.162 3.5h4.338v1.7l-0.725-0.2-0.2-0.050-0.175 0.1c0 0-0.4 0.213-0.813 0.412 0-0.025 0-0.050 0.012-0.075l0.125-0.938-0.838 0.463-0.55 0.25-0.188 0.088-0.088 0.237c-0.050 0.112-0.25 0.588-0.6 0.875-0.063-0.15-0.125-0.425-0.188-0.9-0.088-0.575-0.1-1.15-0.1-1.163l-0.012-0.8zM14.375 8.787l0.85-0.6 0.275-0.2v1.513l-0.15-0.037c0 0-0.563-0.15-1.088-0.375-0.363-0.15-0.563-0.275-0.675-0.35 0.063-0.012 0.137-0.025 0.262-0.025 0.15 0 0.287 0.012 0.325 0.025l0.2 0.050zM15.5 7.35l-0.5-0.075c0 0-0.238-0.037-0.463-0.138 0.113-0.188 0.475-0.55 0.963-0.9v1.112zM8.988 6.725c-0.063 0.5-0.137 0.763-0.188 0.9-0.375-0.138-0.613-0.563-0.775-1h0.975c0 0.037-0.012 0.063-0.012 0.1zM15.5 10.363v3.137h-2l-0.238-0.45c0.037 0.012 0.075 0.012 0.088 0.025l0.225 0.075 0.637-0.4 1.15-0.725-1.338-0.2c-1.025-0.162-1.725-0.575-1.875-0.762 0 0 0 0 0 0 0.113-0.088 0.287-0.137 0.5-0.137 0.463 0 0.95 0.225 1.063 0.287l0.275 0.162 0.25-0.175 1.25-0.825 0.012-0.012zM5.375 13.5h-4.875v-10h10.213l-0.412 0.475-1.1 1.288-0.1 0.112h-1.338l-0.112-1.487-0.85 1.487h-0.8c-0.35 0-0.625 0.275-0.625 0.625s0.275 0.625 0.625 0.625h0.075l-0.063 0.1-0.138 0.213 0.1 0.225c0.013 0.025 0.013 0.050 0.037 0.088 0.075 0.213 0.263 0.7 0.412 1.238 0.162 0.588 0.213 0.938 0.225 1.113-0.213-0.113-0.313-0.4-0.338-0.463v0l-0.162-0.55-0.525 0.175-1 0.375 0.1 0.45 0.375 1.488-0.25 0.012v0.463c-0.013 0.65 0.188 1.15 0.375 1.588l0.025 0.050c0.037 0.113 0.088 0.213 0.125 0.313z"></path>
<path fill="#707070" d="M9.7 14.475l-0.037-0.050c0-0.012-0.512-0.738-1.088-0.75l0.225 0.675-0.225-0.063c-0.012 0-1.138-0.287-2.375-0.287-0.075 0-0.15 0-0.225 0h-0.125l-0.013-0.125c-0.025-0.3-0.138-0.575-0.275-0.887-0.175-0.412-0.362-0.875-0.35-1.45v-0.113l0.35-0.025-0.513-2.025 0.838-0.313 0.037 0.137c0.013 0.037 0.225 0.825 0.912 0.825h0.025c0.037 0 0.075-0.012 0.088-0.050 0.237-0.363-0.263-2.013-0.638-2.963l-0.025-0.050 1.087-1.837 0.025 0.4c0 0.025 0.2 2.388 1.575 2.512 0.3-0.188 0.45-1.537 0.475-2.45v-0.050l1.35-1.563 0.012 0.325c0.037 1.225 0.275 2.525 0.575 2.525 0.012 0 0.037 0 0.063-0.013 0.675-0.325 1-1.237 1-1.25l0.012-0.050 0.8-0.375-0.025 0.225c-0.025 0.2-0.025 0.513 0.075 0.612 0.012 0.013 0.037 0.025 0.050 0.025 0.025 0 0.063-0.013 0.1-0.025 0.525-0.25 1.125-0.563 1.125-0.563l0.050-0.025 1.075 0.3-0.225 0.15c-0.512 0.338-1.338 1.025-1.338 1.412 0 0.075 0.025 0.125 0.1 0.175 0.338 0.2 0.725 0.25 0.725 0.263l0.3 0.050-0.95 0.688-0.050-0.012c0 0-0.188-0.037-0.4-0.037-0.313 0-0.688 0.063-0.738 0.35-0.063 0.363 1.238 0.875 2.138 1.113l0.275 0.075-1.55 1.012-0.063-0.037c-0.012 0-0.637-0.338-1.25-0.338-0.287 0-0.537 0.075-0.725 0.213-0.213 0.162-0.175 0.3-0.162 0.338 0.113 0.425 1.125 0.925 2.213 1.088l0.338 0.050-0.775 0.475-0.050-0.012c0 0-0.287-0.088-0.512-0.088-0.125 0-0.213 0.025-0.238 0.063-0.012 0.012-0.037 0.075 0.063 0.25l0.162 0.3-0.313-0.125c-0.512-0.2-1.162-0.325-1.75-0.325s-0.825 0.125-0.838 0.188c-0.063 0.25 0.188 0.588 0.287 0.688l0.012 0.012 0.5 0.875-1.2-0.063z"></path>
<path fill="#d0d0d0" d="M13.813 9.938c-0.050-0.012-0.125-0.025-0.2-0.037s-0.162-0.025-0.262-0.037c-0.1-0.012-0.2-0.012-0.313-0.025s-0.225-0.012-0.35-0.012-0.25 0-0.375 0-0.262 0.012-0.387 0.012-0.512 0.025-0.75 0.050c-0.238 0.025-0.463 0.050-0.65 0.075-0.088 0.012-0.175 0.025-0.238 0.037l3.35-3.25-0.063-0.063-3.975 3.613c0.088-0.45 0.25-1.25 0.387-2.050 0.113-0.6 0.2-1.213 0.262-1.675 0.012-0.112 0.025-0.225 0.037-0.313s0.025-0.175 0.025-0.237c0.012-0.138 0.025-0.213 0.025-0.213l-0.1-0.013c0 0-0.012 0.075-0.025 0.213-0.012 0.063-0.025 0.15-0.037 0.237-0.012 0.1-0.025 0.2-0.050 0.313-0.063 0.45-0.175 1.063-0.3 1.662-0.2 1.037-0.45 2.063-0.512 2.338l-1.313 1.188c0-0.113 0.012-0.238 0.012-0.387 0-0.25-0.013-0.537-0.037-0.838-0.013-0.162-0.025-0.313-0.050-0.475s-0.050-0.325-0.075-0.488-0.063-0.313-0.088-0.475c-0.025-0.162-0.050-0.313-0.088-0.463s-0.063-0.287-0.1-0.425c-0.037-0.137-0.075-0.275-0.1-0.388-0.050-0.237-0.112-0.438-0.15-0.575s-0.063-0.213-0.063-0.213l-0.1 0.025c0 0 0.013 0.075 0.050 0.213s0.088 0.338 0.138 0.575c0.025 0.125 0.063 0.25 0.088 0.388 0.037 0.137 0.063 0.275 0.088 0.425s0.050 0.3 0.075 0.463c0.037 0.15 0.050 0.313 0.075 0.475 0.013 0.162 0.037 0.313 0.050 0.475 0.013 0.15 0.025 0.313 0.037 0.463 0.013 0.3 0.025 0.588 0.013 0.825 0 0.238-0.025 0.438-0.037 0.575 0 0.025-0.013 0.063-0.013 0.088l-0.763 0.688c0-0.025 0-0.050 0-0.075-0.013-0.313-0.125-0.7-0.275-1.075-0.3-0.738-0.75-1.4-0.75-1.4l-0.088 0.063c0 0 0.1 0.162 0.237 0.425 0.138 0.25 0.313 0.613 0.438 0.975s0.213 0.75 0.213 1.025c0 0.075-0.013 0.137-0.013 0.188-0.013 0.037-0.013 0.075-0.013 0.1l-2.987 2.713 0.35 0.362 3.25-3.137c0.075-0.012 0.175-0.012 0.3-0.012 0.075 0 0.15 0 0.225 0.012 0.088 0.012 0.163 0.025 0.25 0.037s0.175 0.037 0.262 0.063c0.088 0.025 0.175 0.063 0.262 0.088 0.075 0.025 0.162 0.063 0.25 0.1 0.075 0.050 0.162 0.088 0.238 0.125s0.15 0.088 0.213 0.125c0.075 0.037 0.125 0.088 0.188 0.125 0.050 0.037 0.113 0.075 0.15 0.113 0.037 0.025 0.075 0.063 0.113 0.088 0.063 0.063 0.1 0.088 0.1 0.088l0.075-0.075c0 0-0.037-0.037-0.1-0.088-0.025-0.025-0.075-0.063-0.113-0.1s-0.088-0.075-0.15-0.125c-0.063-0.037-0.125-0.088-0.188-0.137-0.063-0.037-0.137-0.088-0.213-0.137-0.088-0.050-0.162-0.088-0.25-0.137s-0.175-0.088-0.262-0.125c-0.088-0.037-0.188-0.075-0.275-0.1-0.1-0.025-0.188-0.063-0.275-0.075-0.088-0.025-0.175-0.037-0.263-0.050s-0.162-0.025-0.237-0.025c-0.025 0-0.050 0-0.075 0l0.763-0.738c0.025 0 0.050-0.012 0.088-0.012 0.113 0 0.275-0.012 0.475-0.012s0.438 0.012 0.688 0.025c0.25 0.012 0.525 0.037 0.787 0.063 0.275 0.037 0.537 0.063 0.787 0.1s0.488 0.075 0.688 0.1c0.4 0.075 0.662 0.113 0.662 0.113l0.025-0.1c0 0-0.262-0.050-0.662-0.125-0.2-0.037-0.438-0.088-0.688-0.125-0.25-0.050-0.525-0.088-0.787-0.125s-0.537-0.075-0.787-0.1c-0.262-0.025-0.5-0.037-0.7-0.050-0.113-0.012-0.213-0.012-0.313-0.012l1.363-1.325v0.012c0 0 0.25-0.063 0.625-0.125 0.188-0.037 0.4-0.075 0.637-0.1s0.488-0.050 0.738-0.075c0.125-0.012 0.25-0.025 0.375-0.025s0.25-0.012 0.363-0.012 0.225 0 0.338 0c0.1 0 0.2 0 0.3 0.012s0.188 0.012 0.262 0.025c0.075 0 0.15 0.012 0.2 0.025 0.113 0.012 0.175 0.025 0.175 0.025l0.025-0.1c0.012 0-0.050-0.012-0.162-0.037z"></path>
</svg>
<svg id="icon-oc-oacs-archive-icon" width="16" height="16" viewBox="0 0 16 16" x="224" y="64">
<path fill="#c0c0c0" d="M15.5 13.5h-15v-10h15v10zM16 0h-16v3h16v-3zM10.625 6c0-0.35-0.275-0.625-0.625-0.625h-4c-0.35 0-0.625 0.275-0.625 0.625s0.275 0.625 0.625 0.625h4c0.35 0 0.625-0.275 0.625-0.625z"></path>
<path fill="#707070" d="M9.7 14.475l-0.037-0.050c0-0.012-0.512-0.738-1.088-0.75l0.225 0.675-0.225-0.063c-0.012 0-1.138-0.287-2.375-0.287-0.075 0-0.15 0-0.225 0h-0.125l-0.013-0.125c-0.025-0.3-0.138-0.575-0.275-0.887-0.175-0.412-0.362-0.875-0.35-1.45v-0.113l0.35-0.025-0.513-2.025 0.838-0.313 0.037 0.137c0.013 0.037 0.225 0.825 0.912 0.825h0.025c0.037 0 0.075-0.012 0.088-0.050 0.237-0.363-0.263-2.013-0.638-2.963l-0.025-0.050 1.087-1.837 0.025 0.4c0 0.025 0.2 2.388 1.575 2.512 0.3-0.188 0.45-1.537 0.475-2.45v-0.050l1.35-1.563 0.012 0.325c0.037 1.225 0.275 2.525 0.575 2.525 0.012 0 0.037 0 0.063-0.013 0.675-0.325 1-1.237 1-1.25l0.012-0.050 0.8-0.375-0.025 0.225c-0.025 0.2-0.025 0.513 0.075 0.612 0.012 0.013 0.037 0.025 0.050 0.025 0.025 0 0.063-0.013 0.1-0.025 0.525-0.25 1.125-0.563 1.125-0.563l0.050-0.025 1.075 0.3-0.225 0.15c-0.512 0.338-1.338 1.025-1.338 1.412 0 0.075 0.025 0.125 0.1 0.175 0.338 0.2 0.725 0.25 0.725 0.263l0.3 0.050-0.95 0.688-0.050-0.012c0 0-0.188-0.037-0.4-0.037-0.313 0-0.688 0.063-0.738 0.35-0.063 0.363 1.238 0.875 2.138 1.113l0.275 0.075-1.55 1.012-0.063-0.037c-0.012 0-0.637-0.338-1.25-0.338-0.287 0-0.537 0.075-0.725 0.213-0.213 0.162-0.175 0.3-0.162 0.338 0.113 0.425 1.125 0.925 2.213 1.088l0.338 0.050-0.775 0.475-0.050-0.012c0 0-0.287-0.088-0.512-0.088-0.125 0-0.213 0.025-0.238 0.063-0.012 0.012-0.037 0.075 0.063 0.25l0.162 0.3-0.313-0.125c-0.512-0.2-1.162-0.325-1.75-0.325s-0.825 0.125-0.838 0.188c-0.063 0.25 0.188 0.588 0.287 0.688l0.012 0.012 0.5 0.875-1.2-0.063z"></path>
<path fill="#d0d0d0" d="M10.675 4.3c0 0 0.088 2.65 0.7 2.65 0.037 0 0.075-0.013 0.113-0.025 0.725-0.35 1.063-1.313 1.063-1.313l0.55-0.25c0 0-0.1 0.775 0.25 0.775 0.050 0 0.1-0.013 0.15-0.037 0.525-0.25 1.137-0.563 1.137-0.563l0.762 0.213c0 0-1.95 1.3-1.238 1.787 0.363 0.225 0.775 0.275 0.775 0.275l-0.662 0.475c0 0-0.188-0.037-0.425-0.037-0.35 0-0.8 0.075-0.863 0.463-0.113 0.637 2.237 1.262 2.237 1.262l-1.25 0.825c0 0-0.65-0.35-1.313-0.35-0.275 0-0.563 0.063-0.8 0.238-0.787 0.6 0.637 1.438 2.1 1.65l-0.438 0.275c0 0-0.3-0.088-0.55-0.088-0.275 0-0.5 0.1-0.287 0.488-0.575-0.225-1.25-0.338-1.787-0.338-0.525 0-0.912 0.1-0.95 0.287-0.088 0.375 0.325 0.8 0.325 0.8l0.375 0.662-0.875-0.063c0 0-0.55-0.8-1.213-0.8-0.050 0-0.1 0-0.15 0.012l0.2 0.6c0 0-1.138-0.287-2.4-0.287-0.075 0-0.15 0-0.237 0-0.050-0.725-0.638-1.35-0.625-2.325 0.388-0.025 0.388-0.025 0.388-0.025l-0.525-2.063 0.612-0.225c0 0 0.237 0.925 1.038 0.925 0.013 0 0.013 0 0.025 0 0.813-0.025-0.425-3.188-0.425-3.188l0.838-1.45c0 0 0.188 2.538 1.725 2.638 0.525-0.225 0.575-2.575 0.575-2.575l1.075-1.3zM10.912 3.65l-0.425 0.488-1.1 1.288-0.063 0.075v0.088c0 0-0.012 0.575-0.088 1.163-0.1 0.825-0.25 1.088-0.313 1.162-1.225-0.175-1.4-2.375-1.4-2.388l-0.063-0.813-0.4 0.7-0.838 1.45-0.063 0.1 0.050 0.112c0 0.013 0.25 0.65 0.45 1.35 0.325 1.15 0.225 1.438 0.2 1.488h-0.013c-0.588 0-0.787-0.713-0.787-0.738l-0.075-0.262-0.263 0.088-0.6 0.225-0.213 0.075 0.050 0.225 0.45 1.775-0.088 0.012-0.225 0.012v0.225c-0.013 0.613 0.188 1.088 0.362 1.512 0.125 0.3 0.237 0.563 0.263 0.838l0.013 0.238 0.237-0.012c0.075 0 0.15 0 0.225 0 1.213 0 2.325 0.287 2.338 0.287l0.438 0.113-0.137-0.438-0.088-0.262c0.363 0.113 0.688 0.5 0.8 0.662l0.063 0.1 0.125 0.012 0.875 0.063 0.463 0.025-0.225-0.4-0.375-0.662-0.012-0.025-0.025-0.025c-0.1-0.1-0.287-0.363-0.262-0.55 0.050-0.037 0.262-0.113 0.713-0.113 0.563 0 1.2 0.125 1.7 0.325l0.625 0.25-0.313-0.6c-0.025-0.050-0.037-0.088-0.050-0.113 0.025 0 0.063-0.012 0.113-0.012 0.213 0 0.475 0.075 0.475 0.075l0.113 0.037 0.1-0.063 0.438-0.275 0.575-0.363-0.675-0.1c-1.1-0.175-2.025-0.662-2.112-1-0.012-0.025-0.025-0.1 0.125-0.213 0.162-0.125 0.387-0.188 0.65-0.188 0.588 0 1.188 0.313 1.2 0.325l0.125 0.075 0.125-0.088 1.725-1.137-0.537-0.15c0 0-0.575-0.15-1.125-0.387-0.9-0.375-0.925-0.588-0.925-0.6 0.037-0.225 0.4-0.25 0.613-0.25 0.2 0 0.375 0.025 0.375 0.025l0.1 0.025 0.088-0.063 0.662-0.475 0.5-0.362-0.613-0.088c0 0-0.363-0.050-0.675-0.237-0.037-0.037-0.037-0.050-0.037-0.075 0-0.287 0.675-0.9 1.287-1.313l0.463-0.3-0.525-0.15-0.762-0.213-0.1-0.025-0.088 0.050c0 0-0.6 0.325-1.125 0.563-0.012 0-0.012 0.013-0.025 0.013-0.037-0.088-0.050-0.313-0.025-0.487l0.063-0.45-0.412 0.225-0.55 0.25-0.1 0.050-0.037 0.1c0 0.013-0.313 0.875-0.938 1.175 0 0 0 0 0 0-0.037-0.037-0.225-0.225-0.35-1.213-0.088-0.6-0.1-1.188-0.1-1.188l-0.012-0.65z"></path>
<path fill="#d0d0d0" d="M3.725 15.637l9.85-8.95 0.063 0.063-9.563 9.25z"></path>
<path fill="#d0d0d0" d="M5.938 10.15c0 0 0.45 0.662 0.75 1.4 0.15 0.375 0.263 0.762 0.275 1.075 0 0.075 0 0.15 0 0.213s-0.013 0.125-0.025 0.175c-0.013 0.050-0.025 0.088-0.025 0.113-0.013 0.025-0.013 0.037-0.013 0.037l-0.237-0.088c0 0 0-0.012 0.013-0.025 0-0.025 0.013-0.050 0.025-0.088s0.013-0.088 0.025-0.137c0-0.050 0.013-0.113 0.013-0.188 0-0.275-0.088-0.662-0.213-1.025s-0.3-0.725-0.438-0.975c-0.138-0.262-0.237-0.425-0.237-0.425l0.088-0.063z"></path>
<path fill="#d0d0d0" d="M7.7 12.125c0 0 0-0.012 0.013-0.050 0-0.037 0.013-0.088 0.025-0.15 0.013-0.137 0.037-0.338 0.037-0.575 0.013-0.238 0-0.525-0.013-0.825-0.013-0.15-0.025-0.313-0.037-0.463-0.013-0.162-0.037-0.313-0.050-0.475-0.025-0.162-0.037-0.325-0.075-0.475-0.025-0.162-0.050-0.313-0.075-0.463s-0.050-0.287-0.088-0.425c-0.025-0.137-0.063-0.263-0.088-0.388-0.050-0.237-0.1-0.438-0.138-0.575s-0.050-0.213-0.050-0.213l0.1-0.025c0 0 0.025 0.075 0.063 0.213s0.1 0.338 0.15 0.575c0.025 0.112 0.063 0.25 0.1 0.388s0.063 0.275 0.1 0.425c0.037 0.15 0.063 0.3 0.088 0.463s0.063 0.313 0.088 0.475c0.025 0.162 0.050 0.325 0.075 0.488s0.037 0.313 0.050 0.475c0.025 0.3 0.037 0.588 0.037 0.838s-0.013 0.45-0.025 0.6c-0.013 0.075-0.013 0.125-0.025 0.175-0.013 0.037-0.013 0.063-0.013 0.063l-0.25-0.075z"></path>
<path fill="#d0d0d0" d="M9.3 10.625c0 0 0.287-1.2 0.525-2.4 0.125-0.6 0.238-1.213 0.3-1.662 0.025-0.112 0.037-0.213 0.050-0.313 0.012-0.088 0.025-0.175 0.037-0.237 0.012-0.138 0.025-0.213 0.025-0.213l0.1 0.013c0 0-0.012 0.075-0.025 0.213 0 0.063-0.012 0.15-0.025 0.237s-0.025 0.2-0.037 0.313c-0.063 0.463-0.15 1.075-0.262 1.675-0.213 1.213-0.463 2.425-0.463 2.425l-0.225-0.050z"></path>
<path fill="#d0d0d0" d="M9.887 10.063c0 0 0.25-0.050 0.637-0.1 0.188-0.025 0.412-0.050 0.65-0.075s0.5-0.037 0.75-0.050c0.125 0 0.262-0.012 0.387-0.012s0.25 0 0.375 0c0.125 0 0.238 0 0.35 0.012s0.213 0.012 0.313 0.025c0.1 0.012 0.188 0.025 0.262 0.037s0.15 0.025 0.2 0.037c0.113 0.025 0.175 0.037 0.175 0.037l-0.025 0.1c0 0-0.063-0.012-0.175-0.025-0.050-0.012-0.125-0.025-0.2-0.025-0.075-0.012-0.162-0.012-0.262-0.025s-0.2-0.012-0.3-0.012c-0.113 0-0.225 0-0.338 0s-0.238 0.012-0.363 0.012c-0.125 0-0.25 0.012-0.375 0.025-0.25 0.025-0.5 0.050-0.738 0.075s-0.45 0.063-0.637 0.1c-0.375 0.063-0.625 0.125-0.625 0.125l-0.063-0.262z"></path>
<path fill="#d0d0d0" d="M8.175 11.675c0 0 0.012 0 0.063-0.012 0.037 0 0.088-0.012 0.15-0.012 0.125-0.012 0.3-0.012 0.5 0s0.438 0.025 0.7 0.050c0.25 0.025 0.525 0.063 0.787 0.1s0.537 0.075 0.787 0.125c0.25 0.037 0.488 0.088 0.688 0.125 0.4 0.075 0.662 0.125 0.662 0.125l-0.025 0.1c0 0-0.262-0.037-0.662-0.113-0.2-0.025-0.438-0.063-0.688-0.1s-0.512-0.063-0.787-0.1c-0.262-0.025-0.537-0.050-0.787-0.063s-0.488-0.025-0.688-0.025c-0.2 0-0.363 0.012-0.475 0.012-0.050 0-0.1 0.012-0.125 0.012s-0.037 0.012-0.037 0.012l-0.063-0.238z"></path>
<path fill="#d0d0d0" d="M7.125 12.65c0 0 0.013 0 0.037 0s0.063-0.012 0.1-0.012c0.088 0 0.213-0.012 0.362 0 0.075 0 0.15 0.012 0.237 0.025s0.175 0.025 0.262 0.050c0.088 0.012 0.175 0.050 0.275 0.075 0.088 0.025 0.188 0.063 0.275 0.1s0.175 0.075 0.262 0.125c0.088 0.050 0.162 0.088 0.25 0.137 0.075 0.050 0.15 0.1 0.213 0.137 0.063 0.050 0.125 0.1 0.188 0.137 0.063 0.050 0.113 0.088 0.15 0.125s0.088 0.075 0.113 0.1c0.063 0.050 0.1 0.088 0.1 0.088l-0.075 0.075c0 0-0.037-0.025-0.1-0.088-0.037-0.025-0.075-0.063-0.113-0.088-0.037-0.037-0.1-0.075-0.15-0.113-0.063-0.037-0.113-0.088-0.188-0.125-0.063-0.037-0.137-0.088-0.213-0.125s-0.162-0.075-0.238-0.125c-0.088-0.037-0.175-0.075-0.25-0.1-0.088-0.025-0.175-0.063-0.262-0.088s-0.175-0.050-0.262-0.063c-0.088-0.012-0.162-0.025-0.25-0.037-0.075-0.012-0.15-0.012-0.225-0.012-0.138 0-0.25 0-0.325 0.012-0.037 0-0.075 0.012-0.088 0.012-0.025 0-0.025 0-0.025 0l-0.063-0.225z"></path>
</svg>
<svg id="icon-oc-opener-iocn" width="16" height="16" viewBox="0 0 16 16" x="256" y="64">
<path fill="#909090" d="M15 13.5h-14v-9.5h14v9.5zM16 13.5v-11c0-0.55-0.45-1-1-1h-14c-0.55 0-1 0.45-1 1v11c0 0.55 0.45 1 1 1h14c0.55 0 1-0.45 1-1z"></path>
<path fill="#808080" d="M15 8.25h-6.5v-4.25h-1v9.5h1v-4.25h6.5z"></path>
<path fill="#d0d0d0" stroke="#a0a0a0" stroke-width="0.5" stroke-miterlimit="10" stroke-linecap="butt" stroke-linejoin="miter" d="M0 9.75h4v1.5l2.5-2.5-2.5-2.5v1.5h-4"></path>
</svg>
<svg id="icon-oc-options-gear-icon" width="16" height="16" viewBox="0 0 16 16" x="288" y="64">
<path fill="#444" d="M9.813 16h-3.625v-2.137c-0.362-0.113-0.725-0.262-1.063-0.438l-1.5 1.512-2.563-2.563 1.513-1.512c-0.175-0.338-0.325-0.688-0.438-1.063h-2.138v-3.625h2.138c0.112-0.362 0.263-0.725 0.438-1.063l-1.512-1.487 2.563-2.563 1.513 1.513c0.338-0.175 0.688-0.325 1.063-0.438v-2.138h3.625v2.138c0.363 0.112 0.725 0.263 1.063 0.438l1.488-1.512 2.563 2.563-1.512 1.513c0.175 0.338 0.325 0.688 0.438 1.063h2.137v3.625h-2.137c-0.113 0.363-0.262 0.725-0.438 1.063l1.512 1.488-2.563 2.563-1.512-1.512c-0.338 0.175-0.7 0.325-1.063 0.438v2.138zM7.338 14.863h1.338v-1.887l0.45-0.1c0.55-0.125 1.063-0.338 1.55-0.637l0.387-0.238 1.313 1.325 0.938-0.938-1.325-1.35 0.238-0.387c0.3-0.475 0.512-1 0.637-1.55l0.1-0.45h1.887v-1.313h-1.887l-0.1-0.45c-0.125-0.55-0.338-1.075-0.637-1.55l-0.238-0.388 1.338-1.325-0.95-0.95-1.338 1.337-0.387-0.237c-0.475-0.3-1-0.513-1.55-0.638l-0.45-0.1v-1.9h-1.313v1.888l-0.45 0.1c-0.55 0.125-1.063 0.337-1.55 0.637l-0.388 0.25-1.325-1.337-0.95 0.95 1.337 1.337-0.25 0.388c-0.3 0.475-0.513 1-0.638 1.55l-0.1 0.45h-1.887v1.337h1.887l0.1 0.45c0.125 0.55 0.337 1.063 0.638 1.55l0.237 0.387-1.325 1.3 0.938 0.938 1.338-1.338 0.388 0.238c0.475 0.3 1 0.512 1.55 0.637l0.45 0.1v1.912zM8 11.050c-1.675 0-3.050-1.363-3.050-3.050 0-1.675 1.362-3.050 3.050-3.050 1.675 0 3.050 1.362 3.050 3.050 0 1.675-1.375 3.050-3.050 3.050zM8 6.1c-1.050 0-1.9 0.85-1.9 1.9s0.85 1.9 1.9 1.9 1.9-0.85 1.9-1.9-0.85-1.9-1.9-1.9z"></path>
</svg>
<svg id="icon-oc-pdf-annotate-einitials" width="16" height="16" viewBox="0 0 16 16" x="320" y="64">
<path fill="#444" d="M7.662 10.675c0.9-1.475 1.575-2.625 2.025-3.475s0.675-1.388 0.675-1.625c0-0.075-0.037-0.15-0.088-0.213-0.063-0.050-0.125-0.075-0.213-0.075-0.15 0-0.6 0.15-1.325 0.45s-1.175 0.5-1.313 0.588l-1.15 0.65c-0.5 0.263-0.775 0.4-0.85 0.4s-0.138-0.1-0.213-0.3c0-0.375 0.25-0.875 0.737-1.513 0.537-0.675 1.2-1.237 1.962-1.65 0.1-0.075 0.15-0.063 0.15 0.013s-0.063 0.137-0.175 0.163c-0.112 0.088-0.225 0.188-0.325 0.287-0.112 0.125-0.225 0.275-0.313 0.425 1.063-0.537 1.838-0.913 2.338-1.125 0.4-0.2 0.825-0.313 1.262-0.337 0.25-0.013 0.512 0.050 0.725 0.188 0.175 0.125 0.275 0.337 0.275 0.55-0.025 0.325-0.113 0.638-0.25 0.925-0.213 0.5-0.463 0.987-0.738 1.475-0.325 0.575-0.662 1.15-0.988 1.713l-1.813 3.088c0.975-1.225 1.875-2.287 2.7-3.213 0.813-0.925 1.537-1.662 2.15-2.237 0.488-0.475 1-0.9 1.55-1.3 0.425-0.287 0.725-0.438 0.925-0.438s0.275 0.075 0.25 0.213c0.1 0.15 0.188 0.313 0.262 0.487 0.063 0.15 0.1 0.3 0.112 0.463 0 0.35-0.088 0.688-0.262 0.987-0.225 0.412-0.475 0.8-0.75 1.175-0.95 1.275-1.637 2.288-2.075 3.025s-0.662 1.338-0.675 1.787c0 0.338 0.175 0.5 0.525 0.5 0.2-0.012 0.4-0.075 0.563-0.175 0.275-0.162 0.537-0.35 0.775-0.55 0.3-0.25 0.6-0.525 0.912-0.825v0.588c-0.425 0.45-0.813 0.825-1.162 1.137s-0.662 0.588-0.963 0.825c-0.262 0.213-0.537 0.387-0.825 0.537-0.2 0.113-0.412 0.175-0.637 0.175-0.238 0.012-0.475-0.088-0.637-0.275-0.162-0.2-0.25-0.45-0.238-0.713 0.012-0.338 0.075-0.675 0.175-0.988 0.15-0.45 0.325-0.9 0.537-1.325 0.238-0.512 0.537-1.050 0.9-1.637s0.775-1.2 1.225-1.838c0.45-0.638 0.675-1.050 0.675-1.225s-0.050-0.237-0.162-0.15c-0.45 0-1.475 0.9-3.063 2.688l-0.525 0.625-0.762 0.95-0.875 1.137-0.963 1.275c-0.15 0.213-0.287 0.313-0.4 0.313s-0.275-0.1-0.475-0.3c-0.2-0.2-0.3-0.338-0.3-0.425s0.138-0.35 0.412-0.8c0.3-0.438 0.525-0.787 0.7-1.075zM4.3 11.537l-0.075 0.287h-4.225l0.1-0.287c0.425-0.012 0.7-0.037 0.838-0.1 0.2-0.063 0.363-0.2 0.488-0.363 0.163-0.238 0.338-0.662 0.512-1.275l1.788-6.175c0.125-0.375 0.2-0.763 0.237-1.163 0-0.125-0.038-0.237-0.1-0.337-0.075-0.1-0.175-0.175-0.3-0.212-0.263-0.063-0.525-0.087-0.788-0.075l0.087-0.287h3.962l-0.075 0.288c-0.25-0.025-0.487 0.012-0.725 0.1-0.213 0.087-0.388 0.237-0.513 0.425s-0.275 0.6-0.45 1.238l-1.788 6.2c-0.163 0.563-0.25 0.925-0.25 1.088 0 0.113 0.025 0.225 0.087 0.325 0.075 0.1 0.175 0.175 0.3 0.213 0.3 0.063 0.6 0.1 0.888 0.113z"></path>
</svg>
<svg id="icon-oc-pdf-annotate-esignature" width="16" height="16" viewBox="0 0 16 16" x="352" y="64">
<path fill="#444" d="M15.037 15.488c0 0.287-0.225 0.512-0.512 0.512h-12.912l-0.55-0.55 2.65-2.65c0.237-0.238 0.537-0.387 0.862-0.425 0.188-0.025 0.362-0.113 0.487-0.25 0.138-0.137 0.225-0.313 0.25-0.5 0.063-0.463-0.275-0.887-0.737-0.95s-0.888 0.275-0.95 0.738c-0.038 0.325-0.188 0.625-0.413 0.863l-2.663 2.65-0.55-0.55c1.438-2.238 2.337-5.725 2.337-5.725l5.225-2.838 2.638 2.637-2.838 5.225c0 0-1.888 0.488-3.763 1.3h10.913c0.287-0.012 0.525 0.225 0.525 0.512zM11.625 7.987c0 0 2.662-1.438 4.375-2.313l-5.675-5.675c-0.875 1.712-2.313 4.362-2.313 4.362l3.613 3.625z"></path>
</svg>
<svg id="icon-oc-pdf-edit-icon" width="16" height="16" viewBox="0 0 16 16" x="384" y="64">
<path fill="#b0b0b0" d="M12.387 7.287v7.688h-10.325v-13.938h5.625v2.987c0 0.588 0.3 1.112 0.75 1.425l0.863-0.862c-0.262-0.050-0.475-0.287-0.475-0.563v-2.987h0.025l1.988 1.987 0.725-0.725-2.275-2.3h-7.237c-0.55 0-1.012 0.463-1.012 1.038v13.938c0 0.575 0.463 1.037 1.038 1.037h10.325c0.575 0 1.037-0.463 1.037-1.037v-8.725l-1.050 1.037zM9.088 10.575h2.275v0.675h-1.475v0.512h1.438v0.675h-1.438v1.225h-0.8v-3.088zM5.9 10.575h1.3c0.975 0 1.675 0.588 1.675 1.55s-0.7 1.55-1.675 1.55h-1.3v-3.1zM7.2 12.975c0.537 0 0.862-0.4 0.862-0.85 0-0.475-0.287-0.85-0.85-0.85h-0.5v1.7c0 0 0.487 0 0.487 0zM3.1 10.575h1.55c0.7 0 1.075 0.475 1.075 1.025 0 0.563-0.375 1.012-1.075 1.012h-0.75v1.050h-0.8c0 0 0-3.088 0-3.088zM4.537 11.25h-0.65v0.7h0.65c0.213 0 0.375-0.137 0.375-0.338 0-0.225-0.162-0.363-0.375-0.363zM6.713 10.063l1.787-0.363 6.463-6.463-1.438-1.438-6.463 6.475-0.35 1.787z"></path>
</svg>
<svg id="icon-oc-pdf-icon" width="16" height="16" viewBox="0 0 16 16" x="416" y="64">
<path fill="#b0b0b0" d="M10.063 0h-7.237c-0.575 0-1.038 0.463-1.038 1.038v13.938c0 0.575 0.462 1.037 1.038 1.037h10.325c0.575 0 1.037-0.463 1.037-1.037v-10.85l-4.125-4.125zM13.162 14.963h-10.325v-13.925h5.625v2.987c0 0.95 0.775 1.725 1.725 1.725h2.988l-0.012 9.213zM10.175 4.588c-0.313 0-0.575-0.263-0.575-0.575v-2.975h0.025l3.525 3.525v0.025h-2.975zM3.875 8h1.55c0.7 0 1.075 0.475 1.075 1.025 0 0.563-0.375 1.012-1.075 1.012h-0.75v1.050h-0.8v-3.088zM5.313 8.675h-0.65v0.7h0.65c0.213 0 0.375-0.137 0.375-0.338 0-0.225-0.162-0.363-0.375-0.363zM6.675 8h1.3c0.975 0 1.675 0.588 1.675 1.55s-0.7 1.55-1.675 1.55h-1.3v-3.1zM7.975 10.4c0.537 0 0.863-0.4 0.863-0.85 0-0.475-0.287-0.85-0.85-0.85h-0.5v1.7c0 0 0.487 0 0.487 0zM9.863 8h2.262v0.675h-1.463v0.512h1.438v0.675h-1.438v1.225h-0.8v-3.088z"></path>
</svg>
<svg id="icon-oc-postforconsult-icon" width="16" height="16" viewBox="0 0 16 16" x="448" y="64">
<path fill="#444" d="M13.613 5.162c0.287-0.513 0.463-1.138 0.463-1.788 0-1.875-1.363-3.375-3-3.375s-3 1.5-3 3.375c0 0.663 0.175 1.275 0.463 1.788-0.45 0.15-0.85 0.388-1.2 0.7-0.55-0.825-1.438-1.362-2.413-1.362-1.638 0-3 1.5-3 3.375 0 0.662 0.175 1.275 0.462 1.787-1.375 0.463-2.388 1.762-2.388 3.263v2.35c0 0.425 0.3 0.725 0.725 0.725 0.412 0 0.725-0.325 0.725-0.725v-2.35c0-1.1 0.863-1.975 1.975-1.975h0.275c0.375 0.188 0.788 0.3 1.225 0.3s0.85-0.113 1.225-0.3h0.225c1.1 0 1.975 0.863 1.975 1.975v2.35c0 0.425 0.3 0.725 0.725 0.725 0.363 0 0.688-0.275 0.762-0.65l0.012-0.037v-2.387c0-0.762-0.262-1.475-0.7-2.050h6.1c0.412 0 0.75-0.338 0.75-0.75v-1.7c0-1.5-1.012-2.8-2.388-3.263zM4.925 9.75c-0.813 0-1.5-0.863-1.5-1.875s0.688-1.875 1.5-1.875 1.5 0.862 1.5 1.875-0.688 1.875-1.5 1.875zM11.075 1.5c0.813 0 1.5 0.862 1.5 1.875s-0.688 1.875-1.5 1.875-1.5-0.862-1.5-1.875 0.688-1.875 1.5-1.875zM14.5 9.375h-6.9v-0.95c0-1.1 0.863-1.975 1.975-1.975h0.275c0.375 0.188 0.787 0.3 1.225 0.3s0.85-0.112 1.225-0.3h0.225c1.1 0 1.975 0.862 1.975 1.975v0.95z"></path>
</svg>
<svg id="icon-oc-postforcredit-icon" width="16" height="16" viewBox="0 0 16 16" x="480" y="64">
<path fill="#444" d="M15.813 2.388c0 0-2.063-2.225-2.075-2.225-0.125-0.1-0.287-0.163-0.488-0.163-0.088 0-0.162 0.025-0.238 0.087-0.125 0.075-0.238 0.188-0.325 0.3l-2 2c-0.25 0.25-0.25 0.688 0 0.938s0.688 0.25 0.938 0l0.938-0.938v5.112c0 0.425 0.25 0.688 0.688 0.688s0.688-0.25 0.688-0.688v-5.112l0.938 0.938c0.25 0.25 0.688 0.25 0.938 0s0.25-0.688 0-0.938zM10.1 7.625c0.275-0.588 0.425-1.263 0.425-1.987 0-2.425-1.75-4.362-3.875-4.362s-3.875 1.938-3.875 4.362c0 0.713 0.15 1.388 0.425 1.987-1.825 0.588-3.2 2.325-3.2 4.325v3.313c0 0.438 0.3 0.738 0.738 0.738 0.363 0 0.738-0.275 0.738-0.738v-3.313c0-1.537 1.15-2.813 2.625-3.025 0.688 0.675 1.575 1.075 2.55 1.075 0.963 0 1.85-0.4 2.538-1.063 1.463 0.238 2.575 1.5 2.575 3.025v3.313c0 0.438 0.3 0.738 0.738 0.738 0.387 0 0.713-0.287 0.8-0.688v-3.375c0-2-1.363-3.738-3.2-4.325zM6.65 8.425c-1.338 0-2.375-1.287-2.375-2.775s1.037-2.775 2.375-2.775 2.375 1.288 2.375 2.775-1.037 2.775-2.375 2.775z"></path>
</svg>
<svg id="icon-oc-preview-icon" width="16" height="16" viewBox="0 0 16 16" x="0" y="96">
<path fill="#444" d="M10.075-0.013h-7.237c-0.575 0-1.038 0.463-1.038 1.038v0 13.95c0 0.575 0.462 1.037 1.038 1.037 0 0 0 0 0 0h10.325c0.575 0 1.037-0.463 1.037-1.037v0-10.863l-4.125-4.125zM9.613 1.025h0.025l3.525 3.525v0.025h-2.975c-0.313-0.013-0.563-0.263-0.575-0.575v-2.975zM13.175 14.95h-10.325v-13.925h5.625v2.987c0 0.95 0.775 1.725 1.725 1.725h2.987l-0.012 9.213zM4 11.875h8v1h-8v-1zM4 9.875h8v1h-8v-1zM4 7.875h8v1h-8v-1z"></path>
</svg>
<svg id="icon-oc-print-set-icon" width="16" height="16" viewBox="0 0 16 16" x="32" y="96">
<path fill="#444" d="M15.5 7h-2v-4.5l-2.5-2.513h-8c-0.275 0-0.5 0.225-0.5 0.5v6.513h-2c-0.275 0-0.5 0.225-0.5 0.5v5c0 0.275 0.225 0.5 0.5 0.5h2v2.488c0 0.275 0.225 0.5 0.5 0.5h10c0.275 0 0.5-0.225 0.5-0.5v-2.488h2c0.275 0 0.5-0.225 0.5-0.5v-5c0-0.275-0.225-0.5-0.5-0.5zM3.5 0.988h7.088l0.012 0.012v1.925h1.9v5.075h-9v-7.013zM12.5 14.988h-9v-2.988h9v2.988zM14.5 10h-2c-0.275 0-0.5-0.225-0.5-0.5s0.225-0.5 0.5-0.5h2c0.275 0 0.5 0.225 0.5 0.5s-0.225 0.5-0.5 0.5z"></path>
</svg>
<svg id="icon-oc-refresh-icon" width="16" height="16" viewBox="0 0 16 16" x="64" y="96">
<path fill="#444" d="M7 14.050l2.738-4.188 0.55 1.5c1.976-0.863 3.332-2.801 3.332-5.055 0-1.769-0.835-3.342-2.132-4.348 2.030 1.177 3.381 3.354 3.381 5.847 0 2.613-1.485 4.879-3.656 6.001l0.575 1.693z"></path>
<path fill="#444" d="M4.825 2.175l-0.612-1.675 4.787 1.45-2.737 4.188-0.55-1.5c-1.976 0.863-3.332 2.801-3.332 5.055 0 1.769 0.835 3.342 2.132 4.348-2.030-1.177-3.381-3.354-3.381-5.847 0-2.613 1.485-4.879 3.656-6.001z"></path>
</svg>
<svg id="icon-oc-remove-preferred-reviewer-icon" width="16" height="16" viewBox="0 0 16 16" x="96" y="96">
<path fill="#444" d="M15.875 6.25h-10.238l4.125-4.1c0.213-0.212 0.225-0.563 0.012-0.775 0 0-0.012-0.012-0.012-0.012l-1.2-1.2c-0.213-0.225-0.575-0.225-0.8 0 0 0 0 0 0 0l-7.438 7.438c-0.212 0.225-0.212 0.575 0 0.8l7.425 7.438c0.213 0.225 0.575 0.225 0.8 0 0 0 0 0 0 0l1.2-1.2c0.213-0.2 0.225-0.55 0.012-0.762 0 0-0.012-0.012-0.012-0.012l-4.112-4.112h10.238v-3.5z"></path>
</svg>
<svg id="icon-oc-remove-reviewer-icon" width="16" height="16" viewBox="0 0 16 16" x="128" y="96">
<path fill="#444" d="M16 8c0 4.412-3.588 8-8 8s-8-3.588-8-8 3.587-8 8-8 8 3.587 8 8zM13 6.75h-10v2.5h10v-2.5z"></path>
</svg>
<svg id="icon-oc-reports-icon" width="16" height="16" viewBox="0 0 16 16" x="160" y="96">
<path fill="#444" d="M15 1v14c0 0.55-0.45 1-1 1h-11c-1.1 0-2-0.9-2-2v-9c0-0.55 0.45-1 1-1h1v-3c0-0.55 0.45-1 1-1h10c0.55 0 1 0.45 1 1zM14 1h-10v14h10v-14zM13 13.5c0-0.275-0.225-0.5-0.5-0.5h-7c-0.275 0-0.5 0.225-0.5 0.5s0.225 0.5 0.5 0.5h7c0.275 0 0.5-0.225 0.5-0.5zM13 11.5c0-0.275-0.225-0.5-0.5-0.5h-7c-0.275 0-0.5 0.225-0.5 0.5s0.225 0.5 0.5 0.5h7c0.275 0 0.5-0.225 0.5-0.5zM13 9.5c0-0.275-0.225-0.5-0.5-0.5h-7c-0.275 0-0.5 0.225-0.5 0.5s0.225 0.5 0.5 0.5h7c0.275 0 0.5-0.225 0.5-0.5zM5.912 7.775l1.713-2.575 2.075 1.462c0.113 0.075 0.25 0.112 0.375 0.088 0.137-0.025 0.25-0.1 0.325-0.213l2.5-3.75c0.15-0.225 0.088-0.538-0.137-0.688s-0.537-0.087-0.688 0.138l-2.213 3.313-2.075-1.462c-0.112-0.075-0.25-0.112-0.375-0.088-0.138 0.025-0.25 0.1-0.325 0.213l-2 3c-0.15 0.225-0.088 0.537 0.138 0.688 0.088 0.063 0.188 0.088 0.275 0.088 0.162 0.012 0.325-0.063 0.412-0.213z"></path>
</svg>
<svg id="icon-oc-resettodefault-icon" width="16" height="16" viewBox="0 0 16 16" x="192" y="96">
<path fill="#444" d="M8.838 0.838c-2.925 0-5.438 1.763-6.537 4.287l-0.863-2.038c-0.163-0.375-0.6-0.563-0.975-0.4s-0.55 0.6-0.4 0.975l1.65 3.875c0.075 0.188 0.225 0.325 0.412 0.4 0.125 0.050 0.25 0.063 0.388 0.050 0.063-0.013 0.125-0.025 0.188-0.050l3.875-1.65c0.375-0.162 0.55-0.6 0.4-0.975-0.162-0.375-0.6-0.55-0.975-0.4l-2 0.85c0.85-1.85 2.7-3.138 4.862-3.138 2.963 0 5.363 2.413 5.363 5.362s-2.412 5.362-5.363 5.362c-2.013 0-3.763-1.113-4.675-2.75l-1.55 0.9c1.225 2.175 3.55 3.638 6.225 3.638 3.95 0 7.162-3.2 7.162-7.162s-3.225-7.138-7.188-7.138z"></path>
</svg>
<svg id="icon-oc-return-icon" width="16" height="16" viewBox="0 0 16 16" x="224" y="96">
<path fill="#444" d="M3.175 0.863c0 0.875 0 1.738 0 2.625 0.112 0 4.45 0 6.513 0 1.825 0 3.262 1.163 3.613 2.9 0.45 2.1-1.188 4.188-3.338 4.238-1.425 0.025-4.338 0-4.4 0 0-0.6 0-1.213 0-1.875-1.875 1.075-3.7 2.125-5.563 3.2 1.85 1.075 3.675 2.125 5.55 3.2 0-0.662 0-1.262 0-1.887 0.138 0 3.163 0.025 4.575-0.012 2.825-0.088 5.325-2.313 5.787-5.1 0.55-3.375-1.525-6.45-4.85-7.175-0.375-0.088-0.762-0.125-1.15-0.125-2.188-0.012-6.662 0-6.737 0.012z"></path>
</svg>
<svg id="icon-oc-save-close-icon" width="16" height="16" viewBox="0 0 16 16" x="256" y="96">
<path fill="#444" d="M12 0h-12v16h16v-12l-4-4zM9.5 1v4h-3.5v-4h3.5zM3.5 15v-5h9v5h-9zM15 15h-1.5v-6h-11v6h-1.5v-14h1.5v5h8v-5h1.088l3.412 3.412v10.588z"></path>
</svg>
<svg id="icon-oc-search-icon" width="16" height="16" viewBox="0 0 16 16" x="288" y="96">
<path fill="#444" d="M15.713 14.287l-4.388-4.388c0.738-1.025 1.175-2.287 1.175-3.65 0-3.45-2.8-6.25-6.25-6.25s-6.25 2.8-6.25 6.25 2.8 6.25 6.25 6.25c1.362 0 2.625-0.438 3.65-1.175l4.388 4.388c0.2 0.2 0.45 0.287 0.713 0.287s0.512-0.1 0.713-0.287c0.387-0.4 0.387-1.025 0-1.425zM2 6.25c0-2.337 1.913-4.25 4.25-4.25s4.25 1.913 4.25 4.25-1.912 4.25-4.25 4.25-4.25-1.912-4.25-4.25z"></path>
</svg>
<svg id="icon-oc-set-delete-icon" width="16" height="16" viewBox="0 0 16 16" x="320" y="96">
<path fill="#444" d="M7 3.125l-0.85-1.5c-0.088-0.15-0.25-0.25-0.438-0.25h-5.213c-0.275 0-0.5 0.225-0.5 0.5v1.25h7zM15 3.625h-15v10c0 0.55 0.45 1 1 1h14c0.55 0 1-0.45 1-1v-9c0-0.55-0.45-1-1-1zM10.438 10.688c0.25 0.25 0.25 0.637 0 0.887-0.113 0.125-0.287 0.188-0.438 0.188s-0.313-0.063-0.438-0.188l-1.563-1.563-1.563 1.563c-0.112 0.125-0.287 0.188-0.438 0.188s-0.313-0.063-0.438-0.188c-0.25-0.25-0.25-0.637 0-0.887l1.55-1.563-1.563-1.55c-0.25-0.25-0.25-0.638 0-0.888s0.638-0.25 0.888 0l1.563 1.55 1.563-1.563c0.25-0.25 0.637-0.25 0.887 0s0.25 0.638 0 0.888l-1.563 1.562 1.55 1.563z"></path>
</svg>
<svg id="icon-oc-set-rename-icon" width="16" height="16" viewBox="0 0 16 16" x="352" y="96">
<path fill="#444" d="M6.15 9.65h-0.525v1.35h-1.037v-4h2c0.888 0 1.388 0.588 1.388 1.338 0 0.7-0.425 1.063-0.8 1.2l0.825 1.463h-1.188l-0.662-1.35zM6.438 7.875h-0.813v0.9h0.813c0.275 0 0.5-0.175 0.5-0.45s-0.237-0.45-0.5-0.45zM7 3.125l-0.85-1.5c-0.088-0.15-0.25-0.25-0.438-0.25h-5.213c-0.275 0-0.5 0.225-0.5 0.5v1.25h7zM15 3.625h-15v10c0 0.55 0.45 1 1 1h14c0.55 0 1-0.45 1-1v-9c0-0.55-0.45-1-1-1zM11 6.263h-0.825c-0.313 0-0.563 0.225-0.563 0.487v4.5c0 0.262 0.25 0.488 0.563 0.488h0.825v0.512h-0.825c-0.338 0-0.625-0.137-0.825-0.363-0.2 0.225-0.488 0.363-0.825 0.363h-0.825v-0.512h0.825c0.313 0 0.563-0.213 0.563-0.488v-4.5c0-0.263-0.25-0.487-0.563-0.487h-0.825v-0.513h0.825c0.338 0 0.625 0.138 0.825 0.362 0.2-0.225 0.488-0.362 0.825-0.362h0.825v0.513z"></path>
</svg>
<svg id="icon-oc-setasdefault-icon" width="16" height="16" viewBox="0 0 16 16" x="384" y="96">
<path fill="#444" d="M15.887 6.75c0.063 0.412 0.113 0.825 0.113 1.25 0 4.412-3.588 8-8 8s-8-3.588-8-8 3.587-8 8-8c1.563 0 3.025 0.45 4.25 1.238-0.050 0.050-0.113 0.087-0.162 0.137l-1.313 1.313c-0.838-0.438-1.775-0.688-2.775-0.688-3.313 0-6 2.688-6 6s2.688 6 6 6c3.075 0 5.613-2.325 5.963-5.313l1.925-1.938zM8.938 10.887l6.338-6.338c0.488-0.487 0.488-1.275 0-1.763s-1.275-0.487-1.762 0l-5.463 5.45-2.275-2.287c-0.487-0.487-1.275-0.487-1.763 0s-0.487 1.275 0 1.763l3.163 3.163c0.25 0.25 0.563 0.363 0.887 0.363s0.625-0.113 0.875-0.35z"></path>
</svg>
<svg id="icon-oc-spe-mgmt-db-color-icon" width="16" height="16" viewBox="0 0 16 16" x="416" y="96">
<path fill="#d0d0d0" d="M16 14.063v0.8c0 0.625-1.512 1.137-3.25 1.137s-3.25-0.512-3.25-1.137v-0.8c0.787 0.563 2.275 0.738 3.25 0.738s2.463-0.175 3.25-0.738zM12.75 12.963c-0.975 0-2.463-0.175-3.25-0.738v0.787c0 0.625 1.512 1.137 3.25 1.137s3.25-0.512 3.25-1.137v-0.787c-0.787 0.563-2.275 0.738-3.25 0.738zM12.75 8.2c-1.738 0-3.25 0.512-3.25 1.137s1.512 1.137 3.25 1.137c1.738 0 3.25-0.512 3.25-1.137s-1.512-1.137-3.25-1.137zM12.75 11.113c-0.975 0-2.463-0.175-3.25-0.738v0.787c0 0.625 1.512 1.137 3.25 1.137s3.25-0.512 3.25-1.137v-0.787c-0.787 0.575-2.275 0.738-3.25 0.738z"></path>
<path fill="#707070" d="M6.475 9.037c-1.275 0-2.338-1.162-2.338-2.625s1.050-2.625 2.338-2.625 2.338 1.162 2.338 2.625-1.063 2.625-2.338 2.625zM4.45 2.8c0.125-0.263 0.188-0.563 0.188-0.875 0-1.075-0.763-1.925-1.7-1.925s-1.712 0.85-1.712 1.925c0 0.313 0.075 0.612 0.188 0.875-0.8 0.263-1.413 1.025-1.413 1.913v1.463c0 0.188 0.138 0.325 0.325 0.325 0.163 0 0.325-0.125 0.325-0.325v-1.463c0-0.675 0.513-1.237 1.163-1.325 0.3 0.3 0.688 0.475 1.125 0.475 0.425 0 0.813-0.175 1.112-0.462 0.213 0.025 0.412 0.112 0.588 0.237 0.188-0.138 0.388-0.263 0.588-0.362-0.213-0.212-0.487-0.375-0.775-0.475zM2.938 3.163c-0.587 0-1.050-0.563-1.050-1.225s0.463-1.225 1.050-1.225 1.050 0.575 1.050 1.225-0.462 1.225-1.050 1.225zM11.588 2.8c0.125-0.263 0.188-0.563 0.188-0.875 0-1.075-0.775-1.925-1.713-1.925s-1.7 0.85-1.7 1.925c0 0.313 0.075 0.612 0.188 0.875-0.3 0.1-0.563 0.263-0.8 0.475 0.2 0.1 0.388 0.212 0.575 0.35 0.188-0.138 0.4-0.237 0.625-0.263 0.3 0.3 0.688 0.475 1.125 0.475 0.425 0 0.813-0.175 1.113-0.462 0.65 0.1 1.137 0.662 1.137 1.325v1.462c0 0.188 0.137 0.325 0.325 0.325 0.175 0 0.313-0.125 0.35-0.3v-1.475c0-0.888-0.6-1.65-1.412-1.913zM10.063 3.163c-0.588 0-1.050-0.563-1.050-1.225s0.463-1.225 1.050-1.225c0.588 0 1.050 0.575 1.050 1.225s-0.463 1.225-1.050 1.225zM8.5 12.113v-3.55c-0.513 0.588-1.225 0.963-2.025 0.963-0.888 0-1.7-0.463-2.213-1.162-0.938 0.387-1.638 1.3-1.638 2.363v1.975c0 0.175 0.163 0.3 0.35 0.3h5.525v-0.887z"></path>
</svg>
<svg id="icon-oc-spe-mgmt-db-white-icon" width="16" height="16" viewBox="0 0 16 16" x="448" y="96">
<path fill="#d0d0d0" d="M16 14.063v0.8c0 0.625-1.512 1.137-3.25 1.137s-3.25-0.512-3.25-1.137v-0.8c0.787 0.563 2.275 0.738 3.25 0.738s2.463-0.175 3.25-0.738zM12.75 12.963c-0.975 0-2.463-0.175-3.25-0.738v0.787c0 0.625 1.512 1.137 3.25 1.137s3.25-0.512 3.25-1.137v-0.787c-0.787 0.563-2.275 0.738-3.25 0.738zM12.75 8.2c-1.738 0-3.25 0.512-3.25 1.137s1.512 1.137 3.25 1.137c1.738 0 3.25-0.512 3.25-1.137s-1.512-1.137-3.25-1.137zM12.75 11.113c-0.975 0-2.463-0.175-3.25-0.738v0.787c0 0.625 1.512 1.137 3.25 1.137s3.25-0.512 3.25-1.137v-0.787c-0.787 0.575-2.275 0.738-3.25 0.738z"></path>
<path fill="#d0d0d0" d="M6.475 9.037c-1.275 0-2.338-1.162-2.338-2.625s1.050-2.625 2.338-2.625 2.338 1.162 2.338 2.625-1.063 2.625-2.338 2.625zM4.45 2.8c0.125-0.263 0.188-0.563 0.188-0.875 0-1.075-0.763-1.925-1.7-1.925s-1.712 0.85-1.712 1.925c0 0.313 0.075 0.612 0.188 0.875-0.8 0.263-1.413 1.025-1.413 1.913v1.463c0 0.188 0.138 0.325 0.325 0.325 0.163 0 0.325-0.125 0.325-0.325v-1.463c0-0.675 0.513-1.237 1.163-1.325 0.3 0.3 0.688 0.475 1.125 0.475 0.425 0 0.813-0.175 1.112-0.462 0.213 0.025 0.412 0.112 0.588 0.237 0.188-0.138 0.388-0.263 0.588-0.362-0.213-0.212-0.487-0.375-0.775-0.475zM2.938 3.163c-0.587 0-1.050-0.563-1.050-1.225s0.463-1.225 1.050-1.225 1.050 0.575 1.050 1.225-0.462 1.225-1.050 1.225zM11.588 2.8c0.125-0.263 0.188-0.563 0.188-0.875 0-1.075-0.775-1.925-1.713-1.925s-1.7 0.85-1.7 1.925c0 0.313 0.075 0.612 0.188 0.875-0.3 0.1-0.563 0.263-0.8 0.475 0.2 0.1 0.388 0.212 0.575 0.35 0.188-0.138 0.4-0.237 0.625-0.263 0.3 0.3 0.688 0.475 1.125 0.475 0.425 0 0.813-0.175 1.113-0.462 0.65 0.1 1.137 0.662 1.137 1.325v1.462c0 0.188 0.137 0.325 0.325 0.325 0.175 0 0.313-0.125 0.35-0.3v-1.475c0-0.888-0.6-1.65-1.412-1.913zM10.063 3.163c-0.588 0-1.050-0.563-1.050-1.225s0.463-1.225 1.050-1.225c0.588 0 1.050 0.575 1.050 1.225s-0.463 1.225-1.050 1.225zM8.5 12.113v-3.55c-0.513 0.588-1.225 0.963-2.025 0.963-0.888 0-1.7-0.463-2.213-1.162-0.938 0.387-1.638 1.3-1.638 2.363v1.975c0 0.175 0.163 0.3 0.35 0.3h5.525v-0.887z"></path>
</svg>
<svg id="icon-oc-status-icon" width="16" height="16" viewBox="0 0 16 16" x="480" y="96">
<path fill="#a0a0a0" d="M8 12.7c-0.65 0-1.287-0.050-1.875-0.162-1.013 1.012-2.35 1.713-3.888 2.050-0.238 0.037-0.5 0.088-0.762 0.113-0.137 0.012-0.275-0.075-0.313-0.213s0.075-0.225 0.175-0.325c0.563-0.525 1.238-0.938 1.462-2.838-1.712-1.050-2.8-2.6-2.8-4.338 0-3.163 3.575-5.7 8-5.7s8 2.55 8 5.7c0 3.162-3.575 5.713-8 5.713zM4.575 5.838c-0.638 0-1.138 0.513-1.138 1.138s0.513 1.138 1.138 1.138 1.138-0.513 1.138-1.138-0.5-1.138-1.138-1.138zM8 5.838c-0.638 0-1.138 0.513-1.138 1.138s0.513 1.138 1.138 1.138 1.137-0.513 1.137-1.138-0.5-1.138-1.138-1.138zM11.425 5.838c-0.637 0-1.137 0.513-1.137 1.138s0.512 1.138 1.137 1.138c0.637 0 1.137-0.513 1.137-1.138s-0.5-1.138-1.137-1.138z"></path>
</svg>
<svg id="icon-oc-submit-icon" width="16" height="16" viewBox="0 0 16 16" x="0" y="128">
<path fill="#444" d="M16 0l-4 14.662-5.425-4.825 5.2-5.487-6.963 4.825-4.813-1.175 16-8zM6 11.113v4.887l2.175-2.95-2.175-1.938z"></path>
</svg>
<svg id="icon-oc-tab-slope-left-icon" width="16" height="16" viewBox="0 0 16 16" x="32" y="128">
<path fill="#444" d="M1.375 16c3.65 0 5.412-6.175 7.725-11.063s5.525-4.938 5.525-4.938v16h-13.25z"></path>
</svg>
<svg id="icon-oc-tab-slope-right-icon" width="16" height="16" viewBox="0 0 16 16" x="64" y="128">
<path fill="#444" d="M14.625 16c-3.65 0-5.412-6.175-7.725-11.063s-5.525-4.938-5.525-4.938v16h13.25z"></path>
</svg>
<svg id="icon-oc-word-icon" width="16" height="16" viewBox="0 0 16 16" x="96" y="128">
<path fill="#505050" d="M10.063 0h-7.237c-0.575 0-1.038 0.463-1.038 1.038v13.938c0 0.575 0.462 1.037 1.038 1.037h10.325c0.575 0 1.037-0.463 1.037-1.037v-10.85l-4.125-4.125zM13.162 14.963h-10.325v-13.925h5.625v2.987c0 0.95 0.775 1.725 1.725 1.725h2.988l-0.012 9.213zM10.175 4.588c-0.313 0-0.575-0.263-0.575-0.575v-2.975h0.025l3.525 3.525v0.025h-2.975zM12 7.487l-1.5 5.675h-1.412l-0.938-3.638c-0.050-0.188-0.075-0.4-0.088-0.637h-0.012c-0.025 0.262-0.063 0.475-0.1 0.637l-0.963 3.637h-1.5l-1.487-5.675h1.4l0.8 3.775c0.037 0.162 0.063 0.375 0.075 0.65h0.025c0.013-0.2 0.050-0.425 0.112-0.662l1.025-3.763h1.375l0.925 3.812c0.037 0.137 0.063 0.338 0.088 0.613h0.012c0.012-0.213 0.037-0.425 0.088-0.637l0.787-3.787c0 0 1.287 0 1.287 0z"></path>
</svg>
<svg id="icon-oc-wordedit-icon" width="16" height="16" viewBox="0 0 16 16" x="128" y="128">
<path fill="#505050" d="M11.875 9.35v5.625h-10.325v-13.95h5.625v2.987c0 0.95 0.775 1.725 1.725 1.725h0.8l1.15-1.15h-1.963c-0.313 0-0.575-0.263-0.575-0.575v-2.987h0.025l3.037 3.013 0.725-0.725-3.325-3.325h-7.237c-0.563 0-1.025 0.463-1.025 1.038v13.938c0 0.575 0.463 1.037 1.038 1.037h10.325c0.575 0 1.037-0.463 1.037-1.037v-6.662l-1.037 1.050zM6.013 11.863l-0.338 1.287h-1.475l-1.487-5.675h1.4l0.8 3.775c0.037 0.162 0.063 0.375 0.075 0.65h0.013c0.013-0.2 0.050-0.425 0.112-0.662l1.025-3.763h1.375l0.088 0.338-0.963 0.962-0.625 3.088zM9.525 11.675l-0.975 0.2c0 0.012 0 0.012 0 0.025h-0.012c0-0.012 0-0.012 0-0.025l-1.025 0.2 0.275 1.075h1.412l0.425-1.575-0.1 0.1zM7.225 11.1l1.8-0.363 6.463-6.463-1.438-1.438-6.463 6.45-0.362 1.813z"></path>
</svg>
<svg id="icon-oc-zoom-handle-icon" width="16" height="16" viewBox="0 0 16 16" x="160" y="128">
<path fill="#444" d="M16 8c0 4.418-3.582 8-8 8s-8-3.582-8-8c0-4.418 3.582-8 8-8s8 3.582 8 8z"></path>
</svg>
</svg>
